<svg width="141" height="141" viewBox="0 0 141 141" fill="none" xmlns="http://www.w3.org/2000/svg">
<g clip-path="url(#clip0_75_3051)">
<path d="M89.3801 66.58C89.3101 78.81 81.5801 90.12 70.0101 94.3C58.4401 98.48 45.1201 94.9 37.1601 85.39C29.2001 75.88 28.2401 61.89 34.6401 51.32C40.9901 40.82 53.6001 35.22 65.6501 37.65C77.7001 40.08 87.0701 49.9 89.0301 61.99C89.2801 63.51 89.3701 65.05 89.3801 66.59C89.3901 68.52 92.3901 68.52 92.3801 66.59C92.3001 53.01 83.7201 40.72 70.9601 36.04C58.2401 31.37 43.4101 35.44 34.8301 45.91C26.2001 56.45 24.9701 71.67 32.0501 83.37C39.1001 95.02 52.9401 101.07 66.2801 98.45C79.6201 95.83 89.8901 84.98 91.9501 71.81C92.2201 70.08 92.3701 68.34 92.3801 66.59C92.3901 64.66 89.3901 64.66 89.3801 66.59V66.58Z" fill="#231F20"/>
<path d="M30.3901 64.38C30.3901 62.41 30.3501 60.44 30.4001 58.47C30.5001 54.74 31.3201 51 32.8201 47.58C35.7601 40.87 41.1601 35.44 47.8201 32.41C54.4801 29.38 62.7501 29.05 69.8501 31.57C76.9501 34.09 82.4301 39.01 85.8601 45.36C87.8401 49.01 89.0301 53.1 89.3101 57.25C89.4701 59.66 89.3801 62.1 89.3801 64.51C89.3801 66.44 92.3801 66.44 92.3801 64.51C92.3801 62.32 92.4501 60.13 92.3501 57.94C92.1701 53.83 91.2101 49.82 89.5401 46.06C86.4001 38.95 80.5401 33.03 73.4601 29.81C65.9501 26.39 57.2601 25.88 49.4301 28.56C41.6001 31.24 35.5401 36.4 31.6301 43.27C29.3901 47.2 28.0301 51.55 27.5601 56.04C27.2701 58.8 27.3901 61.6 27.3901 64.37C27.3901 66.3 30.3901 66.3 30.3901 64.37V64.38Z" fill="#231F20"/>
<path d="M17.87 76.85H2.71C1.21331 76.85 0 78.0633 0 79.56V135.87C0 137.367 1.21331 138.58 2.71 138.58H17.87C19.3667 138.58 20.58 137.367 20.58 135.87V79.56C20.58 78.0633 19.3667 76.85 17.87 76.85Z" fill="#C1D9E5"/>
<path d="M21.5901 88.38C21.6701 88.38 21.7501 88.4 21.8301 88.41C22.0401 88.43 22.0701 88.44 21.8201 88.41C22.0101 88.44 22.1901 88.46 22.3801 88.49C23.4101 88.65 24.4401 88.86 25.4501 89.09C28.9901 89.9 32.4601 91.03 35.8101 92.41C38.0901 93.34 40.3101 94.41 42.4801 95.57C44.6501 96.73 46.7901 97.94 49.3001 98.38C50.3001 98.55 51.3201 98.68 52.3301 98.82C61.2301 100.09 70.1401 101.36 79.0401 102.64C80.6701 102.87 82.2301 103.43 83.5401 104.46C86.6701 106.91 87.2901 111.5 85.3001 114.87C84.3101 116.54 86.9101 118.05 87.8901 116.38C89.7801 113.19 89.9501 109.06 88.3501 105.74C86.9301 102.78 83.9801 100.61 80.8001 99.9C77.7901 99.22 74.6201 98.99 71.5701 98.56C66.1501 97.79 60.7401 97.01 55.3201 96.24C53.8201 96.03 52.3101 95.82 50.8101 95.6C46.9301 95.03 43.7701 92.76 40.2801 91.13C34.4701 88.42 28.0301 86.01 21.5901 85.4C19.6701 85.22 19.6801 88.22 21.5901 88.4V88.38Z" fill="#231F20"/>
<path d="M60.7401 118.37H79.5301C81.9501 118.37 84.4801 118.58 86.9001 118.37C88.1701 118.26 89.5801 117.34 90.7201 116.83C97.4201 113.85 104.12 110.88 110.82 107.9C116.69 105.29 122.56 102.69 128.43 100.08C128.67 99.97 128.91 99.87 129.16 99.76C129.21 99.74 129.27 99.71 129.32 99.69C129.31 99.69 128.73 99.75 129.38 99.81C131.06 99.97 132.53 100.41 133.6 101.82C134.08 102.46 134.42 103.23 134.56 104.02C134.63 104.41 134.65 104.8 134.63 105.19C134.61 105.58 134.21 106.44 134.31 106.74C134.36 106.9 134.89 106.38 134.46 106.74C134.26 106.91 134.02 107.04 133.8 107.18L131.4 108.79C125.24 112.93 119.07 117.07 112.91 121.22C107.29 124.99 101.68 128.77 96.0601 132.54C93.6401 134.17 91.2101 135.65 88.3601 136.46C85.5101 137.27 82.6201 137.28 79.6901 137.28H48.2801C47.0601 137.28 46.2901 136.89 45.0701 136.49C41.0601 135.18 37.0601 133.87 33.0501 132.57C29.0401 131.27 25.1901 130 21.2701 128.72C19.4301 128.12 18.6401 131.02 20.4701 131.61C28.7201 134.3 36.9701 137 45.2201 139.69C46.3501 140.06 47.1601 140.28 48.2801 140.28H75.7601C77.9801 140.28 80.2001 140.28 82.4201 140.28C87.3301 140.26 92.0701 138.81 96.1501 136.09C100.82 132.97 105.48 129.82 110.14 126.69L130.32 113.13L135.76 109.47C136.94 108.68 137.35 107.39 137.54 105.99C137.99 102.58 136.17 99.11 133.05 97.63C131.43 96.86 129.31 96.44 127.62 97.18C126.95 97.47 126.28 97.77 125.62 98.07C122.79 99.33 119.96 100.58 117.12 101.84C109.58 105.19 102.03 108.54 94.4901 111.89L87.2401 115.11C86.9801 115.23 86.7101 115.33 86.4601 115.46C85.8401 115.77 86.6501 115.19 86.9401 115.38C86.5701 115.14 85.2601 115.38 84.8401 115.38H60.7301C58.8001 115.38 58.8001 118.38 60.7301 118.38L60.7401 118.37Z" fill="#231F20"/>
<path d="M41.0801 42.45V36.31C41.0801 35.53 40.3901 34.77 39.5801 34.81C38.7701 34.85 38.0801 35.47 38.0801 36.31V42.45C38.0801 43.23 38.7701 43.99 39.5801 43.95C40.3901 43.91 41.0801 43.29 41.0801 42.45Z" fill="#231F20"/>
<path d="M82.96 43.32V37.18C82.96 36.4 82.27 35.64 81.46 35.68C80.65 35.72 79.96 36.34 79.96 37.18V43.32C79.96 44.1 80.65 44.86 81.46 44.82C82.27 44.78 82.96 44.16 82.96 43.32Z" fill="#231F20"/>
<path d="M50.1799 37.09V30.95C50.1799 30.17 49.4899 29.41 48.6799 29.45C47.8699 29.49 47.1799 30.11 47.1799 30.95V37.09C47.1799 37.87 47.8699 38.63 48.6799 38.59C49.4899 38.55 50.1799 37.93 50.1799 37.09Z" fill="#231F20"/>
<path d="M73.73 37.97V31.83C73.73 31.05 73.04 30.29 72.23 30.33C71.42 30.37 70.73 30.99 70.73 31.83V37.97C70.73 38.75 71.42 39.51 72.23 39.47C73.04 39.43 73.73 38.81 73.73 37.97Z" fill="#231F20"/>
<path d="M61.8999 34.85V28.71C61.8999 27.93 61.2099 27.17 60.3999 27.21C59.5899 27.25 58.8999 27.87 58.8999 28.71V34.85C58.8999 35.63 59.5899 36.39 60.3999 36.35C61.2099 36.31 61.8999 35.69 61.8999 34.85Z" fill="#231F20"/>
<path d="M83.5799 37.77C84.9799 32.53 86.3799 27.28 87.7799 22.04C88.2799 20.16 88.6999 18.24 89.2999 16.39C90.0299 14.15 92.1199 12.51 94.4799 12.33C95.6799 12.24 96.7899 12.61 97.9299 12.91C100.88 13.7 103.83 14.49 106.78 15.27L105.73 13.42C105.22 16.93 106.96 20.53 110.52 21.59C114.08 22.65 117.61 20.3 118.89 16.96L117.04 18.01L122.78 19.54C124.76 20.07 127.3 20.39 128.91 21.75C130.75 23.31 131.36 25.71 130.77 28C130.58 28.74 130.38 29.48 130.18 30.21C127.92 38.65 125.67 47.09 123.41 55.53C120.76 65.44 118.11 75.36 115.46 85.27L113.44 92.82C113.04 94.31 112.37 95.66 111.08 96.61C109.29 97.92 107.27 97.88 105.25 97.34C96.6599 95.05 88.0799 92.75 79.4899 90.46L78.7199 90.26C76.8499 89.76 76.0599 92.65 77.9199 93.15C86.3299 95.4 94.7299 97.64 103.14 99.89C104.52 100.26 105.91 100.71 107.35 100.76C111.46 100.89 115.07 98.04 116.19 94.16C116.68 92.46 117.1 90.74 117.56 89.03C120.17 79.25 122.79 69.47 125.4 59.69C127.86 50.49 130.32 41.28 132.78 32.08C133.49 29.42 134.46 26.76 133.71 23.98C132.82 20.69 130.22 18.44 127 17.56C124.61 16.91 122.21 16.28 119.81 15.64L117.84 15.11C117 14.89 116.29 15.39 115.99 16.16C115.29 17.99 113.27 19.3 111.31 18.69C109.45 18.11 108.34 16.1 108.61 14.21C108.73 13.41 108.42 12.6 107.56 12.36C104.79 11.62 102.03 10.88 99.2599 10.14C98.0099 9.81 96.7599 9.4 95.4699 9.31C92.8999 9.12 90.2499 10.17 88.4799 12.03C86.5699 14.03 86.0999 16.66 85.4099 19.23L82.6299 29.63C81.9799 32.07 81.3299 34.51 80.6699 36.95C80.1699 38.82 83.0599 39.61 83.5599 37.75L83.5799 37.77Z" fill="#231F20"/>
<path d="M128.93 39.14C130.65 40.2 132.37 41.24 134.08 42.31C136.69 43.93 138.14 47 136.62 49.88C135.39 52.21 134.13 54.52 132.88 56.84C127.78 66.34 122.68 75.84 117.57 85.34C116.2 87.9 114.82 90.46 113.45 93.02C112.54 94.72 115.13 96.24 116.04 94.53C119.83 87.48 123.61 80.44 127.4 73.39C131.19 66.34 135.34 58.76 139.21 51.4C141.17 47.66 140.14 43.21 136.83 40.59C134.88 39.04 132.56 37.87 130.44 36.57C128.79 35.56 127.28 38.15 128.93 39.16V39.14Z" fill="#231F20"/>
<path d="M91.92 29.6399C93.21 29.9799 94.5 30.3299 95.79 30.6699C95.97 30.7199 96.16 30.7699 96.34 30.8199C97.1 31.0199 98 30.5699 98.19 29.7699C98.38 28.9699 97.95 28.1399 97.14 27.9199C95.85 27.5799 94.56 27.2299 93.27 26.8899C93.09 26.8399 92.9 26.7899 92.72 26.7399C91.96 26.5399 91.06 26.9899 90.87 27.7899C90.68 28.5899 91.11 29.4199 91.92 29.6399Z" fill="#231F20"/>
<path d="M100.34 31.8899C101.63 32.2299 102.92 32.5799 104.21 32.9199C104.39 32.9699 104.58 33.0199 104.76 33.0699C105.52 33.2699 106.42 32.8199 106.61 32.0199C106.8 31.2199 106.37 30.3899 105.56 30.1699C104.27 29.8299 102.98 29.4799 101.69 29.1399C101.51 29.0899 101.32 29.0399 101.14 28.9899C100.38 28.7899 99.4799 29.2399 99.2899 30.0399C99.0999 30.8399 99.5299 31.6699 100.34 31.8899Z" fill="#231F20"/>
<path d="M108.76 34.1399C110.05 34.4799 111.34 34.8299 112.63 35.1699C112.81 35.2199 113 35.2699 113.18 35.3199C113.94 35.5199 114.84 35.0699 115.03 34.2699C115.22 33.4699 114.79 32.6399 113.98 32.4199C112.69 32.0799 111.4 31.7299 110.11 31.3899C109.93 31.3399 109.74 31.2899 109.56 31.2399C108.8 31.0399 107.9 31.4899 107.71 32.2899C107.52 33.0899 107.95 33.9199 108.76 34.1399Z" fill="#231F20"/>
<path d="M92.8299 64.55C96.3299 61.38 99.8299 58.22 103.33 55.05C105.14 53.42 106.94 51.78 108.75 50.15C109.3 49.66 110.47 48.13 111.28 48.25C112.09 48.37 112.06 49.44 111.73 49.95C111.19 50.78 110.13 51.47 109.39 52.14C108.49 52.96 107.59 53.78 106.69 54.59C104.95 56.18 103.2 57.76 101.46 59.35C97.9099 62.57 94.3699 65.79 90.8199 69.01C89.3899 70.31 91.5099 72.43 92.9399 71.13C99.4699 65.2 106 59.27 112.53 53.33C113.93 52.06 115.14 50.79 114.93 48.74C114.75 47.04 113.47 45.58 111.77 45.28C109.68 44.91 108.21 46.59 106.81 47.85C105.17 49.33 103.53 50.81 101.9 52.29C98.1699 55.66 94.4499 59.03 90.7199 62.4C89.2799 63.7 91.4099 65.81 92.8399 64.52L92.8299 64.55Z" fill="black"/>
<path d="M97.8899 49.7C97.8599 49.82 97.8199 49.94 97.7799 50.06C97.6999 50.32 97.7699 50.1 97.7899 50.04C97.6999 50.24 97.5899 50.44 97.4699 50.62C97.4199 50.7 97.36 50.79 97.3 50.87C97.49 50.61 97.3299 50.83 97.2699 50.89C97.1299 51.05 96.9699 51.2 96.8099 51.34C96.5299 51.6 97.0599 51.19 96.7399 51.39C96.6699 51.43 96.6099 51.48 96.5399 51.52C96.4399 51.58 96.34 51.64 96.23 51.69C96.22 51.69 95.8699 51.85 96.0899 51.76C96.3099 51.67 95.95 51.81 95.94 51.81C95.85 51.84 95.75 51.87 95.66 51.89C95.57 51.91 95.47 51.93 95.37 51.96C95.04 52.04 95.62 51.96 95.3 51.97C95.1 51.97 94.8999 51.99 94.6999 51.98C94.6299 51.98 94.2299 51.92 94.6099 51.98C94.5099 51.96 94.41 51.94 94.3 51.92C94.09 51.87 93.8999 51.8 93.6999 51.74C93.4799 51.68 94 51.9 93.66 51.72C93.55 51.66 93.4399 51.61 93.3399 51.55C93.2399 51.49 93.1399 51.42 93.0399 51.36C92.8099 51.21 93.0199 51.34 93.0599 51.38C92.8999 51.24 92.7399 51.09 92.5899 50.93C92.5199 50.86 92.4599 50.78 92.3999 50.71C92.6099 50.96 92.4399 50.76 92.3999 50.68C92.2899 50.5 92.1799 50.31 92.0799 50.12C91.8999 49.79 92.16 50.41 92.05 50.05C92.02 49.96 91.9899 49.86 91.9599 49.77C91.9299 49.68 91.9099 49.58 91.8899 49.48C91.8899 49.47 91.8099 49.08 91.8599 49.33C91.9099 49.58 91.8599 49.19 91.8499 49.17C91.8499 49.07 91.8499 48.97 91.8499 48.87C91.8499 48.77 91.8599 48.67 91.8599 48.57C91.8599 48.23 91.7999 48.79 91.8599 48.48C91.9099 48.26 91.9599 48.03 92.0299 47.81C92.0599 47.73 92.1699 47.48 92.0299 47.77C92.0699 47.68 92.12 47.59 92.16 47.5C92.25 47.32 92.37 47.16 92.48 46.99C92.6 46.8 92.2399 47.23 92.4999 46.97C92.5799 46.89 92.6599 46.79 92.7399 46.71C92.8199 46.63 92.9099 46.55 92.9999 46.47C93.2599 46.23 92.8299 46.54 93.0199 46.45C93.1899 46.37 93.3499 46.23 93.5199 46.14C93.6099 46.09 93.6899 46.05 93.7799 46.01C93.4799 46.15 93.72 46.04 93.8 46.01C94.03 45.94 94.25 45.89 94.48 45.83C94.71 45.77 94.1099 45.84 94.4899 45.83C94.5899 45.83 94.6899 45.82 94.7899 45.81C94.8899 45.8 94.9899 45.81 95.0899 45.81C95.0899 45.81 95.4999 45.84 95.26 45.81C95.02 45.78 95.4199 45.84 95.4299 45.84C95.5299 45.86 95.63 45.89 95.73 45.92C95.83 45.95 95.9299 45.98 96.0299 46.01C96.3099 46.09 95.8399 45.91 96.1799 46.08C96.3799 46.18 96.5599 46.3 96.7499 46.42C97.0799 46.63 96.5399 46.22 96.8199 46.48C96.9099 46.56 96.9899 46.64 97.0799 46.72C97.1699 46.8 97.2399 46.89 97.3199 46.98C97.5299 47.21 97.2 46.76 97.37 47.05C97.49 47.25 97.6099 47.45 97.7199 47.66C97.8899 47.97 97.6899 47.47 97.7199 47.68C97.7399 47.81 97.8099 47.94 97.8499 48.07C97.8699 48.15 97.89 48.22 97.91 48.3C97.93 48.38 97.9399 48.45 97.9499 48.53C97.9299 48.33 97.9199 48.31 97.9499 48.48C97.9499 48.72 97.9499 48.96 97.9499 49.2C97.9499 49.27 97.9099 49.49 97.9599 49.17C97.9299 49.33 97.8999 49.5 97.8599 49.66C97.6699 50.42 98.11 51.32 98.91 51.51C99.71 51.7 100.55 51.28 100.76 50.46C101.4 47.94 100.42 45.38 98.3199 43.87C96.3399 42.45 93.4399 42.47 91.4599 43.88C89.3699 45.38 88.3299 48.03 89.0599 50.54C89.7899 53.05 92.0099 54.75 94.5699 54.93C97.4099 55.14 99.9999 53.14 100.76 50.45C100.97 49.7 100.5 48.78 99.7099 48.6C98.9199 48.42 98.0899 48.84 97.8599 49.65L97.8899 49.7Z" fill="black"/>
<path d="M106.77 72.8C106.74 72.92 106.7 73.04 106.66 73.16C106.58 73.42 106.65 73.2 106.67 73.14C106.58 73.34 106.47 73.54 106.35 73.72C106.3 73.8 106.24 73.89 106.18 73.97C106.37 73.71 106.21 73.93 106.15 73.99C106.01 74.15 105.85 74.3 105.69 74.44C105.41 74.7 105.94 74.29 105.62 74.49C105.55 74.53 105.49 74.58 105.42 74.62C105.32 74.68 105.22 74.74 105.11 74.79C105.1 74.79 104.75 74.95 104.97 74.86C105.19 74.77 104.83 74.91 104.82 74.91C104.73 74.94 104.63 74.97 104.54 74.99C104.45 75.01 104.35 75.03 104.25 75.06C103.92 75.14 104.5 75.06 104.18 75.07C103.98 75.07 103.78 75.09 103.58 75.08C103.51 75.08 103.11 75.02 103.49 75.08C103.39 75.06 103.29 75.04 103.18 75.02C102.97 74.97 102.78 74.9 102.58 74.84C102.36 74.78 102.88 75 102.54 74.82C102.43 74.76 102.32 74.71 102.22 74.65C102.12 74.59 102.02 74.52 101.92 74.46C101.69 74.31 101.9 74.44 101.94 74.48C101.78 74.34 101.62 74.19 101.47 74.03C101.4 73.96 101.34 73.88 101.28 73.81C101.49 74.06 101.32 73.86 101.28 73.78C101.17 73.6 101.06 73.41 100.96 73.22C100.78 72.89 101.04 73.51 100.93 73.15C100.9 73.06 100.87 72.96 100.84 72.87C100.81 72.78 100.79 72.68 100.77 72.58C100.77 72.57 100.69 72.18 100.74 72.43C100.79 72.68 100.74 72.29 100.73 72.27C100.73 72.17 100.73 72.07 100.73 71.97C100.73 71.87 100.74 71.77 100.74 71.67C100.74 71.33 100.68 71.89 100.74 71.58C100.79 71.36 100.84 71.13 100.91 70.91C100.94 70.83 101.05 70.58 100.91 70.87C100.95 70.78 101 70.69 101.04 70.6C101.13 70.42 101.25 70.26 101.36 70.09C101.48 69.9 101.12 70.33 101.38 70.07C101.46 69.99 101.54 69.89 101.62 69.81C101.7 69.73 101.79 69.65 101.88 69.57C102.14 69.33 101.71 69.64 101.9 69.55C102.07 69.47 102.23 69.33 102.4 69.24C102.49 69.19 102.57 69.15 102.66 69.11C102.36 69.25 102.6 69.14 102.68 69.11C102.91 69.04 103.13 68.99 103.36 68.93C103.59 68.87 102.99 68.94 103.37 68.93C103.47 68.93 103.57 68.92 103.67 68.91C103.77 68.9 103.87 68.91 103.97 68.91C103.97 68.91 104.38 68.94 104.14 68.91C103.9 68.88 104.3 68.94 104.31 68.94C104.41 68.96 104.51 68.99 104.61 69.02C104.71 69.05 104.81 69.08 104.91 69.11C105.19 69.19 104.72 69.01 105.06 69.18C105.26 69.28 105.44 69.4 105.63 69.52C105.96 69.73 105.42 69.32 105.7 69.58C105.79 69.66 105.87 69.74 105.96 69.82C106.05 69.9 106.12 69.99 106.2 70.08C106.41 70.31 106.08 69.86 106.25 70.15C106.37 70.35 106.49 70.55 106.6 70.76C106.77 71.07 106.57 70.57 106.6 70.78C106.62 70.91 106.69 71.04 106.73 71.17C106.75 71.25 106.77 71.32 106.79 71.4C106.81 71.48 106.82 71.55 106.83 71.63C106.81 71.43 106.8 71.41 106.83 71.58C106.83 71.82 106.83 72.06 106.83 72.3C106.83 72.37 106.79 72.59 106.84 72.27C106.81 72.43 106.78 72.6 106.74 72.76C106.55 73.52 106.99 74.42 107.79 74.61C108.59 74.8 109.43 74.38 109.64 73.56C110.28 71.04 109.3 68.48 107.2 66.97C105.22 65.55 102.32 65.57 100.34 66.98C98.2501 68.48 97.2101 71.13 97.9401 73.64C98.6701 76.15 100.89 77.85 103.45 78.03C106.29 78.24 108.88 76.24 109.64 73.55C109.85 72.8 109.38 71.88 108.59 71.7C107.8 71.52 106.97 71.94 106.74 72.75L106.77 72.8Z" fill="black"/>
<path d="M87.1 1.32996C72.13 -1.68004 56.45 0.439963 42.92 7.54996C30.97 13.83 21.03 23.86 14.87 35.88C11.28 42.89 9.02005 50.46 8.05005 58.27L9.55005 56.77H1.68005C0.650049 56.77 -0.329951 58.09 0.380049 59.03C4.05005 63.86 7.73005 68.69 11.4 73.51C11.93 74.21 13.0601 74.63 13.76 73.81C17.82 69.07 21.8701 64.32 25.93 59.58C26.76 58.61 26.2301 57.04 24.8701 57.02C22.2201 56.97 19.57 56.92 16.91 56.87L18.3601 58.77C19.7801 48.31 24.0201 38.33 30.81 30.23C37.49 22.25 46.34 16.18 56.23 12.91C62.0601 10.98 68.14 10.03 74.28 10.01C76.21 10.01 76.21 6.99996 74.28 7.00996C51.87 7.07996 30.75 19.83 20.89 40.08C18.14 45.72 16.31 51.76 15.47 57.97C15.34 58.93 15.84 59.85 16.92 59.87C19.57 59.92 22.22 59.97 24.88 60.02L23.82 57.46C19.76 62.2 15.71 66.95 11.65 71.69L14.01 71.99C10.34 67.16 6.66005 62.33 2.99005 57.51L1.69005 59.77H9.56005C10.4401 59.77 10.96 59.08 11.0601 58.27C12.6601 45.3 18.39 32.97 27.24 23.36C36.09 13.75 47.62 7.12996 60.3 4.37996C68.83 2.52996 77.7401 2.49996 86.3 4.21996C88.19 4.59996 88.99 1.70996 87.1 1.32996Z" fill="#231F20"/>
<path d="M64.69 51.6099C65.6 52.8499 66.2 54.1499 66.5 55.5799C66.57 55.9199 66.83 55.7899 67.01 55.7999C68.39 55.8099 69.77 55.7999 71.15 55.7999C72.17 55.7999 72.45 56.0899 72.45 57.1199C72.45 57.9399 72.45 58.7499 72.45 59.5699C72.45 60.3499 72.14 60.6499 71.35 60.6499C69.95 60.6499 68.55 60.6699 67.15 60.6499C66.78 60.6499 66.62 60.7299 66.54 61.1199C65.56 65.8399 62.54 68.6199 58.06 70.0199C57.04 70.3399 55.99 70.4999 54.89 70.7099C55.73 71.6299 56.55 72.5099 57.34 73.4099C60.1 76.5399 62.81 79.6999 65.43 82.9399C66.33 84.0599 67.24 85.1599 68.16 86.2599C68.42 86.5799 68.52 86.8999 68.34 87.2699C68.15 87.6499 67.86 87.8299 67.41 87.8299C65.58 87.8099 63.76 87.8099 61.93 87.8299C61.43 87.8299 61.14 87.5599 60.87 87.2299C59.8 85.9599 58.75 84.6599 57.67 83.3899C55.9 81.3099 54.11 79.2499 52.33 77.1799C50.52 75.0799 48.66 73.0199 46.77 70.9999C46.47 70.6799 46.33 70.3499 46.35 69.9099C46.38 68.8399 46.35 67.7699 46.35 66.6999C46.35 65.8999 46.69 65.5599 47.47 65.5499C49.22 65.5299 50.97 65.6499 52.71 65.4299C54.85 65.1599 56.88 64.6299 58.43 62.9799C58.96 62.4199 59.28 61.7499 59.58 61.0499C59.71 60.7499 59.64 60.6399 59.3 60.6399C58.23 60.6499 57.16 60.6399 56.09 60.6399C53.27 60.6399 50.45 60.6399 47.64 60.6399C46.59 60.6399 46.35 60.3999 46.35 59.3299C46.35 58.5099 46.35 57.6999 46.35 56.8799C46.35 56.1699 46.64 55.8499 47.35 55.7999C47.62 55.7799 47.89 55.7999 48.17 55.7999C51.65 55.7999 55.13 55.7999 58.61 55.7999C58.79 55.7999 59.06 55.8999 59.15 55.7199C59.24 55.5199 59.02 55.3499 58.9 55.1799C57.9 53.7899 56.45 53.1799 54.84 52.8499C52.46 52.3599 50.05 52.5399 47.65 52.5099C46.6 52.4999 46.36 52.2699 46.36 51.1999C46.36 50.0899 46.36 48.9799 46.36 47.8799C46.36 47.1099 46.68 46.7999 47.46 46.7899C55.43 46.7899 63.4 46.7899 71.37 46.7899C72.05 46.7899 72.4 47.0799 72.42 47.7499C72.45 48.7199 72.45 49.6899 72.42 50.6599C72.4 51.3499 72.04 51.6299 71.24 51.6299C69.26 51.6299 67.27 51.6299 65.29 51.6199C65.13 51.6199 64.96 51.6199 64.71 51.6199L64.69 51.6099Z" fill="url(#paint0_linear_75_3051)"/>
</g>
<defs>
<linearGradient id="paint0_linear_75_3051" x1="46.32" y1="67.3099" x2="72.45" y2="67.3099" gradientUnits="userSpaceOnUse">
<stop stop-color="#8DCC9A"/>
<stop offset="1" stop-color="#5DC4C6"/>
</linearGradient>
<clipPath id="clip0_75_3051">
<rect width="140.2" height="140.28" fill="white"/>
</clipPath>
</defs>
</svg>
