<svg width="127" height="143" viewBox="0 0 127 143" fill="none" xmlns="http://www.w3.org/2000/svg">
<g clip-path="url(#clip0_75_2536)">
<path d="M126.83 142.96H0C0 115.53 22.24 93.29 49.67 93.29C49.5 93.7 45.62 103.68 51.88 111.63C56.01 116.88 61.94 117.91 63.42 118.12C64.9 117.94 70.78 117.07 74.95 111.99C79.09 106.95 79.91 99.71 77.17 93.28C80.35 93.26 98.34 93.43 112.66 107.96C126.66 122.16 126.86 139.64 126.84 142.95L126.83 142.96Z" fill="#C1D9E5"/>
<path d="M93.6899 53.79C100.24 47.41 100.55 37.06 98.5099 28.7C97.4999 24.55 95.8299 20.4 93.2799 16.95C90.4899 13.17 86.7599 10.8 82.0599 10.02C77.3599 9.23999 72.0499 9.99998 67.5099 11.91L68.6699 12.06C59.9399 7.76999 49.9299 8.78999 42.0199 14.35C35.4699 18.96 31.1999 25.95 29.9999 33.89C29.0899 39.9 29.7399 46.02 31.6699 51.77C32.0899 53.02 34.3499 53.36 34.5599 51.77C34.8599 49.51 35.6399 47.47 36.7099 45.65C38.8399 42.02 42.4999 40.14 46.8699 40.85C50.5599 41.45 53.6099 43.54 57.0799 44.76C59.8299 45.73 62.7899 46.09 65.6599 45.52C70.2799 44.6 73.8199 41.12 76.1499 37.19C77.6399 34.68 78.8599 31.83 79.4899 28.97L76.5399 28.57C76.3299 32 77.5099 35.78 79.5599 38.5C81.6099 41.22 84.3199 42.7 87.4799 43.73C89.7899 44.48 92.3299 45.95 92.3499 48.57C92.3499 49.85 91.9799 50.96 91.3199 51.97C90.4099 53.36 92.1299 54.56 93.3699 54.02C96.0299 52.87 99.7499 52.71 100.61 56.2C101.06 58.03 100.13 59.85 99.4899 61.52C98.8499 63.19 98.1699 64.77 97.3599 66.33C96.4399 68.1 95.3999 69.95 93.8399 71.24C93.6399 71.4 93.9099 71.2 93.6499 71.38C93.5299 71.46 93.4099 71.54 93.2899 71.61C93.1899 71.67 93.0899 71.72 92.9899 71.77C92.7999 71.87 93.2299 71.69 92.8799 71.8C92.7799 71.83 92.6799 71.85 92.5799 71.88C92.2599 71.97 92.8399 71.86 92.6199 71.88C92.4499 71.89 92.2899 71.88 92.1199 71.88C92.5699 71.9 92.2199 71.88 91.9999 71.81C92.0999 71.84 92.2599 71.98 91.9799 71.78C91.5899 71.51 92.2099 72.01 91.9899 71.8C91.1799 71 89.7899 71.37 89.4799 72.46C86.1699 84 79.0399 96.76 66.3499 98.94C65.8999 99.02 66.3599 98.94 66.2499 98.96C66.1299 98.97 66.0099 98.99 65.8899 99C65.6999 99.02 65.5199 99.03 65.3299 99.04C65.1399 99.05 64.9699 99.04 64.7799 99.05C63.7999 99.05 62.8199 99.08 61.8399 99C61.7199 98.99 61.5999 98.97 61.4799 98.96C61.3899 98.95 61.8099 99.02 61.3799 98.94C61.0499 98.88 60.7299 98.83 60.3999 98.76C59.5799 98.59 58.7599 98.36 57.9699 98.08C55.9899 97.4 53.9899 96.33 52.1399 95.01C44.7599 89.74 40.6799 80.93 38.2499 72.46C37.9399 71.37 36.5499 71 35.7399 71.8C35.5099 72.03 36.1099 71.51 35.8199 71.74C35.3599 72.1 35.9699 71.61 35.5199 71.87C35.1999 72.05 35.7899 71.9 35.4399 71.89C35.3599 71.89 35.2699 71.89 35.1899 71.89C34.8299 71.86 35.3999 71.95 35.1899 71.89C35.0699 71.86 34.5799 71.71 34.7499 71.77C34.8699 71.82 34.3399 71.54 34.1899 71.45C33.8599 71.25 33.9899 71.33 33.6099 70.99C33.3099 70.72 33.0399 70.42 32.7699 70.11C32.0899 69.31 31.5399 68.41 31.0199 67.51C30.2399 66.15 29.5599 64.72 28.9499 63.27C28.2299 61.55 27.1899 59.56 27.0099 57.69C26.8499 56.02 27.6299 54.4 29.1199 53.59C30.2599 52.97 31.8099 53.03 33.0799 52.87C34.9699 52.63 34.9899 49.63 33.0799 49.87C31.4599 50.07 29.6599 50.05 28.1399 50.73C26.5299 51.46 25.2399 52.78 24.5599 54.41C23.7399 56.37 23.9199 58.38 24.6199 60.34C25.3999 62.53 26.2599 64.7 27.2599 66.79C28.7299 69.84 31.4499 75.16 35.5999 74.86C36.4099 74.8 37.2599 74.49 37.8499 73.91L35.3399 73.25C38.8399 85.47 46.7199 99.63 60.5699 101.82C66.5599 102.77 72.5799 100.91 77.4299 97.34C85.2799 91.55 89.7299 82.42 92.3599 73.25L89.8499 73.91C91.4599 75.5 93.9599 74.88 95.5599 73.65C97.6499 72.04 99.0599 69.58 100.21 67.25C101.25 65.16 102.12 62.99 102.91 60.79C103.7 58.59 104.03 56.57 103.13 54.41C102.34 52.52 100.75 51.07 98.7799 50.48C96.4199 49.78 93.9999 50.48 91.8199 51.41L93.8699 53.46C95.8899 50.38 95.8399 46.08 93.0799 43.47C90.3199 40.86 86.6599 40.89 83.8699 38.72C81.8799 37.17 80.5999 34.95 79.9599 32.53C79.5999 31.15 79.3999 30.02 79.4899 28.55C79.5899 26.87 76.9099 26.5 76.5399 28.15C75.2399 34.02 71.4299 41.22 64.9099 42.59C62.1399 43.17 59.2299 42.5 56.6699 41.41C53.2899 39.98 50.2499 38.24 46.5399 37.79C41.7099 37.21 37.3699 39.23 34.6299 43.2C33.0899 45.44 31.9599 48.25 31.5999 50.96H34.4899C31.2899 41.44 31.6599 30.11 38.0999 21.96C42.3999 16.52 49.1899 12.63 56.1499 12.31C58.8099 12.19 61.4399 12.56 63.9699 13.37C64.9199 13.67 65.8199 14.05 66.7299 14.46C67.6399 14.87 68.0799 14.84 68.9099 14.51C72.5399 13.1 76.5099 12.37 80.3999 12.79C84.2899 13.21 87.8999 14.97 90.3899 18.14C92.5899 20.94 94.0699 24.32 95.0699 27.72C97.3399 35.42 97.6899 45.6 91.4899 51.64C90.1099 52.99 92.2299 55.11 93.6099 53.76L93.6899 53.79Z" fill="#231F20"/>
<path d="M7.22998 22.09V1.5L5.72998 3H26.32C28.25 3 28.25 0 26.32 0H5.72998C4.91998 0 4.22998 0.69 4.22998 1.5V22.09C4.22998 24.02 7.22998 24.02 7.22998 22.09Z" fill="url(#paint0_linear_75_2536)"/>
<path d="M26.32 92.06H5.72998L7.22998 93.56V72.97C7.22998 71.04 4.22998 71.04 4.22998 72.97V93.56C4.22998 94.37 4.91998 95.06 5.72998 95.06H26.32C28.25 95.06 28.25 92.06 26.32 92.06Z" fill="url(#paint1_linear_75_2536)"/>
<path d="M99.96 3H120.55L119.05 1.5V22.09C119.05 24.02 122.05 24.02 122.05 22.09V1.5C122.05 0.69 121.36 0 120.55 0H99.96C98.03 0 98.03 3 99.96 3Z" fill="url(#paint2_linear_75_2536)"/>
<path d="M119.05 72.98V93.57L120.55 92.07H99.96C98.03 92.07 98.03 95.07 99.96 95.07H120.55C121.36 95.07 122.05 94.38 122.05 93.57V72.98C122.05 71.05 119.05 71.05 119.05 72.98Z" fill="url(#paint3_linear_75_2536)"/>
</g>
<defs>
<linearGradient id="paint0_linear_75_2536" x1="5.22998" y1="11.77" x2="26.32" y2="11.77" gradientUnits="userSpaceOnUse">
<stop stop-color="#8DCC9A"/>
<stop offset="1" stop-color="#5DC4C6"/>
</linearGradient>
<linearGradient id="paint1_linear_75_2536" x1="-1.95018e-05" y1="83.29" x2="26.32" y2="83.29" gradientUnits="userSpaceOnUse">
<stop stop-color="#8DCC9A"/>
<stop offset="1" stop-color="#5DC4C6"/>
</linearGradient>
<linearGradient id="paint2_linear_75_2536" x1="99.96" y1="0" x2="121.05" y2="0" gradientUnits="userSpaceOnUse">
<stop stop-color="#8DCC9A"/>
<stop offset="1" stop-color="#5DC4C6"/>
</linearGradient>
<linearGradient id="paint3_linear_75_2536" x1="99.96" y1="83.29" x2="121.05" y2="83.29" gradientUnits="userSpaceOnUse">
<stop stop-color="#8DCC9A"/>
<stop offset="1" stop-color="#5DC4C6"/>
</linearGradient>
<clipPath id="clip0_75_2536">
<rect width="126.83" height="142.96" fill="white"/>
</clipPath>
</defs>
</svg>
