<svg width="334" height="227" viewBox="0 0 334 227" fill="none" xmlns="http://www.w3.org/2000/svg">
<g clip-path="url(#clip0_336_1551)">
<path d="M169.804 44.8554C169.807 44.7634 169.732 44.6889 169.636 44.6897C169.598 44.6897 169.561 44.7018 169.531 44.7231L140.67 66.6544C140.316 66.9198 140.108 67.3373 140.108 67.7799V154.704C140.108 154.825 140.05 154.885 139.933 154.885H136.012C135.912 154.885 135.863 154.836 135.863 154.736V103.996C135.86 103.868 135.754 103.766 135.626 103.769C135.584 103.77 135.542 103.783 135.507 103.805L115.194 117.51C114.853 117.738 114.648 118.123 114.648 118.536V154.868C114.648 156.029 113.707 156.97 112.546 156.97H87.2851C87.1308 156.97 87.0532 156.89 87.0532 156.73V152.964C87.0532 152.732 87.1688 152.616 87.4007 152.616H109.932C110.24 152.616 110.395 152.462 110.395 152.153V116.947C110.395 116.104 110.813 115.316 111.512 114.845L135.474 98.6818C135.717 98.516 135.862 98.243 135.862 97.9533V66.513C135.862 65.6324 136.272 64.8027 136.971 64.2704L147.851 56.0025C148.282 55.677 148.497 55.2435 148.497 54.7028V19.1339C148.497 18.4328 148.817 17.7689 149.366 17.3301L170.126 0.719789C171.329 -0.23993 172.529 -0.23993 173.725 0.719789L194.287 17.1559C194.91 17.6525 195.272 18.4084 195.272 19.2084V85.3918C195.272 85.5127 195.324 85.6252 195.412 85.6982L224.116 110.709C224.668 111.192 224.985 111.89 224.985 112.621V152.13C224.985 152.456 225.15 152.618 225.481 152.618H243.949C244.247 152.618 244.396 152.771 244.396 153.074V156.525C244.396 156.823 244.247 156.972 243.949 156.972H222.841C221.69 156.972 220.757 156.038 220.757 154.887V113.954C220.757 113.573 220.613 113.256 220.326 113.002L193.468 89.6056C193.259 89.4223 192.949 89.4124 192.724 89.5805L161.679 113.167C161.431 113.36 161.304 113.611 161.298 113.92L160.686 154.299C160.681 154.696 160.479 154.895 160.082 154.895H157.029C156.643 154.895 156.453 154.699 156.458 154.307L157.087 112.497C157.097 111.687 157.481 110.924 158.129 110.427L169.465 101.82C169.679 101.653 169.804 101.399 169.804 101.134V44.8554ZM172.567 38.1686C173.577 38.7564 174.065 39.5922 174.065 40.9078C174.071 69.548 174.074 88.5059 174.074 97.7807C174.07 97.9312 174.19 98.0567 174.341 98.0597C174.403 98.0613 174.463 98.0415 174.512 98.0042L190.721 85.6899C190.924 85.5332 191.044 85.2883 191.044 85.0275V20.4495C191.044 20.1347 190.922 19.8815 190.68 19.6883L172.129 4.8659C172.002 4.76095 171.873 4.76095 171.74 4.8659L153.123 19.7628C152.883 19.9507 152.743 20.2374 152.742 20.5408V51.7993C152.743 51.918 152.84 52.0138 152.96 52.0123C153.004 52.0123 153.047 51.9978 153.082 51.9727L171.137 38.2507C171.551 37.9351 172.117 37.9024 172.568 38.1678L172.567 38.1686Z" fill="#F39E1E"/>
<path d="M178.3 114.88L178.286 122.71C178.286 122.893 178.434 123.041 178.616 123.042L186.444 123.055C186.627 123.056 186.775 122.908 186.776 122.725L186.789 114.895C186.79 114.712 186.642 114.564 186.459 114.564L178.631 114.55C178.449 114.55 178.3 114.698 178.3 114.88Z" fill="#F39E1E"/>
<path d="M203.414 114.542L195.636 114.556C195.44 114.556 195.281 114.716 195.281 114.913L195.295 122.692C195.295 122.889 195.455 123.048 195.651 123.047L203.429 123.034C203.626 123.034 203.785 122.874 203.784 122.677L203.771 114.898C203.77 114.701 203.611 114.542 203.414 114.542Z" fill="#F39E1E"/>
<path d="M186.436 131.515L178.624 131.529C178.437 131.529 178.286 131.681 178.286 131.868L178.3 139.682C178.3 139.869 178.452 140.02 178.639 140.02L186.451 140.007C186.638 140.006 186.79 139.854 186.789 139.667L186.776 131.854C186.775 131.666 186.623 131.515 186.436 131.515Z" fill="#F39E1E"/>
<path d="M195.295 131.936L195.281 139.584C195.281 139.817 195.47 140.006 195.703 140.007L203.348 140.02C203.581 140.02 203.771 139.832 203.771 139.599L203.784 131.951C203.785 131.718 203.596 131.529 203.363 131.529L195.718 131.515C195.485 131.515 195.295 131.703 195.295 131.936Z" fill="#F39E1E"/>
<path d="M106.316 222.898V226.498C106.316 226.68 106.171 226.828 105.993 226.828H105.687C105.491 226.828 105.331 226.673 105.331 226.481V217.526C105.331 217.228 105.48 217.063 105.778 217.03C106.01 217.008 106.995 217.03 108.732 217.096C111.818 217.22 112.67 220.886 109.799 222.169C109.541 222.285 109.425 222.587 109.539 222.841C109.552 222.869 109.567 222.896 109.585 222.922L111.893 226.356C111.981 226.483 111.962 226.588 111.835 226.671L111.588 226.845C111.395 226.972 111.235 226.939 111.108 226.746L108.402 222.749C108.236 222.501 108.005 222.376 107.707 222.376H106.846C106.494 222.376 106.317 222.55 106.317 222.898H106.316ZM106.316 218.379L106.349 221.143C106.354 221.318 106.497 221.458 106.671 221.458L108.649 221.441C109.727 221.43 110.595 220.717 110.586 219.849C110.586 219.847 110.586 219.846 110.586 219.844V219.58C110.573 218.713 109.693 218.021 108.616 218.032L106.639 218.049C106.461 218.049 106.316 218.193 106.316 218.371C106.316 218.374 106.316 218.377 106.316 218.38V218.379Z" fill="#F39E1E"/>
<path d="M118.04 221.939C118.04 219.103 118.043 217.654 118.048 217.594C118.087 217.191 118.249 216.993 118.536 216.998L122.996 217.073C123.172 217.073 123.311 217.15 123.41 217.305C123.525 217.492 123.528 217.657 123.418 217.801C123.341 217.901 123.198 217.95 122.988 217.95C121.796 217.972 120.629 217.972 119.488 217.95C119.246 217.941 119.042 218.13 119.033 218.372C119.033 218.378 119.033 218.384 119.033 218.389L119.042 220.955C119.042 221.319 119.223 221.487 119.588 221.46C121.877 221.267 122.983 221.435 122.906 221.965C122.983 222.472 121.877 222.627 119.588 222.428C119.223 222.394 119.039 222.56 119.033 222.925L119.025 225.49C119.025 225.733 119.221 225.929 119.463 225.929C119.468 225.929 119.474 225.929 119.48 225.929C120.622 225.907 121.788 225.91 122.979 225.938C123.189 225.938 123.332 225.987 123.41 226.087C123.52 226.23 123.517 226.395 123.401 226.583C123.302 226.738 123.164 226.815 122.988 226.815L118.528 226.881C118.241 226.881 118.078 226.683 118.04 226.285C118.034 226.224 118.034 224.776 118.04 221.94V221.939Z" fill="#F39E1E"/>
<path d="M133.074 216.98C133.25 216.98 133.413 217.033 133.562 217.138C133.684 217.221 133.78 217.358 133.852 217.552C135.319 221.568 136.373 224.501 137.012 226.349C137.084 226.559 137.015 226.699 136.806 226.771L136.508 226.87C136.282 226.942 136.133 226.867 136.06 226.647L135.523 225.058C135.423 224.749 135.211 224.595 134.886 224.595C134.284 224.59 133.683 224.587 133.082 224.587C132.481 224.587 131.883 224.59 131.287 224.595C130.961 224.6 130.749 224.758 130.649 225.067L130.112 226.655C130.04 226.876 129.891 226.95 129.665 226.879L129.367 226.779C129.157 226.708 129.088 226.567 129.16 226.357C129.794 224.509 130.842 221.574 132.304 217.552C132.375 217.358 132.472 217.221 132.593 217.138C132.743 217.033 132.902 216.98 133.073 216.98H133.074ZM131.303 223.27C131.248 223.425 131.33 223.596 131.485 223.651C131.52 223.663 131.556 223.669 131.593 223.667L134.596 223.634C134.76 223.629 134.89 223.492 134.886 223.328C134.885 223.297 134.879 223.266 134.869 223.237L133.322 218.801C133.266 218.647 133.095 218.567 132.94 218.623C132.854 218.654 132.788 218.723 132.759 218.809L131.303 223.27Z" fill="#F39E1E"/>
<path d="M147.662 226.075V226.538C147.662 226.648 147.573 226.737 147.464 226.737H143.202C143.093 226.737 143.004 226.648 143.004 226.538V217.269C143.004 217.159 143.093 217.07 143.202 217.07H143.707C143.816 217.07 143.905 217.159 143.905 217.269V225.677C143.905 225.787 143.994 225.876 144.104 225.876H147.463C147.572 225.876 147.661 225.965 147.661 226.074L147.662 226.075Z" fill="#F39E1E"/>
<path d="M166.75 221.905C166.822 222.441 165.719 222.614 163.441 222.427C163.071 222.393 162.886 222.559 162.886 222.923V225.481C162.886 225.724 163.083 225.92 163.324 225.92C163.33 225.92 163.336 225.92 163.341 225.92C164.478 225.898 165.641 225.898 166.833 225.92C167.043 225.92 167.186 225.969 167.264 226.069C167.374 226.212 167.371 226.378 167.255 226.565C167.156 226.72 167.018 226.797 166.842 226.797L162.39 226.872C162.103 226.877 161.941 226.679 161.902 226.276C161.896 226.22 161.89 224.775 161.885 221.939C161.88 219.108 161.88 217.666 161.885 217.61C161.924 217.207 162.087 217.008 162.373 217.014L166.825 217.072C167.001 217.066 167.14 217.141 167.238 217.295C167.354 217.483 167.357 217.648 167.247 217.792C167.169 217.891 167.026 217.944 166.816 217.949C165.625 217.971 164.461 217.974 163.324 217.958C163.083 217.948 162.879 218.137 162.87 218.379C162.87 218.387 162.87 218.396 162.87 218.404L162.886 220.961C162.886 221.326 163.068 221.491 163.432 221.458C165.716 221.254 166.822 221.402 166.75 221.905Z" fill="#F39E1E"/>
<path d="M177.788 225.571C178.495 225.16 178.736 224.253 178.326 223.545C178.181 223.295 177.965 223.093 177.706 222.964C175.538 221.879 173.204 221.085 173.742 218.842C174.296 216.533 177.043 216.566 178.69 217.799C178.736 217.83 178.764 217.882 178.765 217.94V218.345C178.767 218.506 178.635 218.635 178.471 218.635C178.417 218.635 178.364 218.621 178.318 218.593C177.203 217.937 176.24 217.796 175.43 218.171C174.749 218.495 174.46 219.31 174.784 219.991C174.918 220.275 175.146 220.503 175.43 220.637C176.249 221.018 178.988 222.127 179.294 223.451C180.063 226.778 176.952 227.539 174.305 226.331C173.716 226.062 173.417 225.368 173.593 224.684C173.615 224.596 173.715 224.554 173.891 224.56C174.112 224.571 174.286 224.665 174.413 224.841C175.334 226.104 176.459 226.348 177.788 225.57V225.571Z" fill="#F39E1E"/>
<path d="M187.8 217.021C188.782 216.994 189.781 217.033 190.796 217.137C190.985 217.158 191.128 217.319 191.127 217.51V217.84C191.127 217.951 191.069 218.006 190.952 218.006H188.751C188.47 218.006 188.321 218.147 188.304 218.428C188.233 219.647 188.263 222.059 188.396 225.661C188.423 226.461 188.211 226.861 187.758 226.861C187.355 226.861 187.168 226.461 187.196 225.661C187.333 222.058 187.367 219.647 187.295 218.428C187.279 218.147 187.13 218.006 186.848 218.006H184.647C184.532 218.006 184.473 217.951 184.473 217.84V217.51C184.473 217.316 184.62 217.154 184.812 217.137C185.822 217.027 186.817 216.988 187.799 217.021H187.8Z" fill="#F39E1E"/>
<path d="M199.69 224.595C199.088 224.59 198.487 224.59 197.886 224.595C197.561 224.6 197.349 224.758 197.249 225.067L196.703 226.655C196.632 226.876 196.483 226.95 196.256 226.879L195.958 226.779C195.748 226.708 195.68 226.567 195.751 226.357C196.397 224.503 197.456 221.568 198.929 217.552C199 217.358 199.097 217.221 199.218 217.138C199.367 217.033 199.527 216.98 199.698 216.98C199.869 216.98 200.037 217.033 200.186 217.138C200.308 217.221 200.405 217.358 200.476 217.552C201.932 221.579 202.977 224.518 203.612 226.365C203.684 226.575 203.615 226.716 203.406 226.788L203.107 226.887C202.882 226.959 202.733 226.884 202.66 226.664L202.13 225.075C202.031 224.766 201.819 224.609 201.493 224.603C200.892 224.598 200.291 224.595 199.69 224.595ZM199.673 223.635C200.275 223.641 200.724 223.66 201.022 223.693C201.408 223.737 201.537 223.578 201.41 223.213L199.954 218.844C199.916 218.728 199.866 218.659 199.805 218.637C199.767 218.625 199.731 218.62 199.698 218.62C199.665 218.615 199.629 218.62 199.591 218.637C199.53 218.659 199.481 218.728 199.442 218.844L197.936 223.197C197.804 223.556 197.933 223.715 198.324 223.676C198.622 223.649 199.072 223.635 199.673 223.635Z" fill="#F39E1E"/>
<path d="M211.762 226.862C211.359 226.862 211.174 226.462 211.208 225.662C211.335 222.058 211.362 219.648 211.291 218.429C211.274 218.147 211.125 218.007 210.844 218.007H208.643C208.527 218.007 208.469 217.951 208.469 217.841V217.51C208.467 217.319 208.61 217.159 208.799 217.137C209.814 217.027 210.813 216.988 211.795 217.022C212.776 216.988 213.775 217.025 214.79 217.129C214.98 217.15 215.123 217.311 215.121 217.502V217.832C215.121 217.943 215.063 217.998 214.947 217.998H212.746C212.465 218.004 212.316 218.147 212.299 218.429C212.233 219.648 212.269 222.059 212.406 225.662C212.434 226.462 212.218 226.862 211.761 226.862H211.762Z" fill="#F39E1E"/>
<path d="M220.996 221.88C220.996 219.055 220.999 217.612 221.004 217.551C221.043 217.148 221.206 216.95 221.492 216.955L225.936 217.03C226.112 217.024 226.25 217.099 226.349 217.253C226.465 217.441 226.468 217.606 226.358 217.75C226.28 217.85 226.137 217.899 225.927 217.899C224.741 217.926 223.58 217.929 222.444 217.907C222.202 217.898 221.998 218.087 221.989 218.329C221.989 218.335 221.989 218.341 221.989 218.346V220.904C221.989 221.268 222.174 221.434 222.543 221.4C224.821 221.207 225.924 221.361 225.853 221.863C225.924 222.393 224.821 222.561 222.543 222.368C222.174 222.335 221.989 222.501 221.989 222.865L221.981 225.422C221.981 225.665 222.177 225.861 222.418 225.861C222.424 225.861 222.43 225.861 222.435 225.861C223.572 225.839 224.735 225.842 225.927 225.869C226.137 225.869 226.278 225.919 226.349 226.019C226.46 226.162 226.456 226.327 226.341 226.515C226.241 226.67 226.104 226.747 225.927 226.747L221.484 226.805C221.197 226.81 221.035 226.612 220.996 226.209C220.991 226.153 220.991 224.711 220.996 221.88Z" fill="#F39E1E"/>
</g>
<path d="M10.9831 166.263C12.9307 166.263 14.5948 166.596 15.9754 167.262C17.356 167.903 18.4161 168.84 19.1557 170.072C19.92 171.305 20.3021 172.797 20.3021 174.547C20.3021 175.607 20.1418 176.655 19.8214 177.69C19.5009 178.701 18.9831 179.626 18.2682 180.464C17.5779 181.277 16.6657 181.931 15.5317 182.424C14.3976 182.917 13.017 183.163 11.3899 183.163H7.43301V193H3.84593V166.263H10.9831ZM11.3529 179.724C12.413 179.724 13.2882 179.552 13.9785 179.206C14.6688 178.861 15.2112 178.43 15.6056 177.912C16.0001 177.37 16.2836 176.803 16.4562 176.211C16.6287 175.619 16.715 175.089 16.715 174.621C16.715 174.078 16.6287 173.524 16.4562 172.957C16.2836 172.365 15.9877 171.835 15.5686 171.367C15.1742 170.874 14.6441 170.479 13.9785 170.183C13.3375 169.863 12.5363 169.703 11.5748 169.703H7.43301V179.724H11.3529ZM28.0578 177.69L28.3906 182.128L28.2057 181.536C28.6002 180.599 29.1672 179.81 29.9068 179.169C30.6711 178.504 31.46 177.998 32.2735 177.653C33.1118 177.283 33.839 177.099 34.4554 177.099L34.2705 180.501C33.1118 180.427 32.0886 180.649 31.2011 181.166C30.3383 181.684 29.648 182.374 29.1302 183.237C28.6372 184.1 28.3906 185.025 28.3906 186.011V193H24.9885V177.69H28.0578ZM36.9108 185.197C36.9108 183.669 37.2683 182.288 37.9832 181.055C38.7228 179.823 39.7336 178.849 41.0156 178.134C42.2976 177.419 43.7521 177.062 45.3792 177.062C47.0557 177.062 48.5226 177.419 49.7799 178.134C51.0372 178.849 52.011 179.823 52.7013 181.055C53.3916 182.288 53.7368 183.669 53.7368 185.197C53.7368 186.726 53.3916 188.119 52.7013 189.376C52.011 190.609 51.0249 191.582 49.7429 192.297C48.4856 193.012 47.0187 193.37 45.3423 193.37C43.7151 193.37 42.2606 193.037 40.9786 192.371C39.7213 191.681 38.7228 190.732 37.9832 189.524C37.2683 188.291 36.9108 186.849 36.9108 185.197ZM40.3499 185.234C40.3499 186.22 40.5718 187.12 41.0156 187.934C41.4594 188.723 42.051 189.351 42.7906 189.82C43.5549 190.288 44.3931 190.522 45.3053 190.522C46.2668 190.522 47.1173 190.288 47.8569 189.82C48.6212 189.351 49.2129 188.723 49.632 187.934C50.0511 187.12 50.2606 186.22 50.2606 185.234C50.2606 184.248 50.0511 183.361 49.632 182.572C49.2129 181.758 48.6212 181.117 47.8569 180.649C47.1173 180.156 46.2668 179.909 45.3053 179.909C44.3685 179.909 43.5179 180.156 42.7537 180.649C42.0141 181.142 41.4224 181.795 40.9786 182.609C40.5595 183.397 40.3499 184.273 40.3499 185.234ZM67.4165 193.37C66.2578 193.37 65.1361 193.099 64.0513 192.556C62.9912 192.014 62.1653 191.287 61.5737 190.374L61.7955 189.302V200.359H58.3934V177.468H61.3518L61.8325 181.388L61.4627 180.316C62.2023 179.379 63.1391 178.602 64.2732 177.986C65.4073 177.37 66.6769 177.062 68.0822 177.062C69.5121 177.062 70.794 177.407 71.9281 178.097C73.0868 178.787 73.999 179.749 74.6646 180.981C75.3303 182.214 75.6631 183.656 75.6631 185.308C75.6631 186.96 75.3056 188.39 74.5907 189.598C73.8757 190.806 72.8896 191.743 71.6323 192.408C70.3996 193.049 68.9943 193.37 67.4165 193.37ZM66.7509 190.633C67.737 190.633 68.6369 190.411 69.4504 189.968C70.2886 189.499 70.9543 188.871 71.4474 188.082C71.9404 187.268 72.187 186.356 72.187 185.345C72.187 184.31 71.9527 183.397 71.4843 182.609C71.0159 181.795 70.3873 181.154 69.5983 180.686C68.8341 180.217 67.9712 179.983 67.0097 179.983C66.1222 179.983 65.321 180.156 64.606 180.501C63.8911 180.846 63.2994 181.327 62.831 181.943C62.3626 182.535 62.0297 183.225 61.8325 184.014V186.565C61.9558 187.354 62.2516 188.057 62.72 188.673C63.1885 189.29 63.7678 189.77 64.4581 190.116C65.1731 190.461 65.9373 190.633 66.7509 190.633ZM87.4144 193.37C85.664 193.37 84.1601 193.025 82.9028 192.334C81.6455 191.619 80.6717 190.658 79.9814 189.45C79.3157 188.217 78.9829 186.812 78.9829 185.234C78.9829 183.73 79.3651 182.362 80.1293 181.129C80.8936 179.897 81.9167 178.911 83.1987 178.171C84.4806 177.431 85.9105 177.062 87.4884 177.062C89.5099 177.062 91.1864 177.653 92.5177 178.837C93.8489 180.02 94.7488 181.647 95.2172 183.718L82.607 188.156L81.7934 186.122L92.1479 182.35L91.4082 182.83C91.1124 182.017 90.6193 181.314 89.929 180.723C89.2387 180.106 88.3389 179.798 87.2295 179.798C86.2927 179.798 85.4544 180.032 84.7148 180.501C83.9752 180.944 83.3959 181.561 82.9768 182.35C82.5577 183.139 82.3481 184.038 82.3481 185.049C82.3481 186.109 82.57 187.046 83.0138 187.86C83.4575 188.649 84.0615 189.277 84.8258 189.746C85.6147 190.19 86.5022 190.411 87.4884 190.411C88.154 190.411 88.795 190.288 89.4113 190.042C90.0523 189.795 90.644 189.475 91.1864 189.08L92.7765 191.632C92.0123 192.149 91.1494 192.569 90.1879 192.889C89.2511 193.21 88.3266 193.37 87.4144 193.37ZM102.596 177.69L102.929 182.128L102.744 181.536C103.138 180.599 103.705 179.81 104.445 179.169C105.209 178.504 105.998 177.998 106.812 177.653C107.65 177.283 108.377 177.099 108.993 177.099L108.809 180.501C107.65 180.427 106.627 180.649 105.739 181.166C104.876 181.684 104.186 182.374 103.668 183.237C103.175 184.1 102.929 185.025 102.929 186.011V193H99.5265V177.69H102.596ZM114.909 170.96H118.349V177.764H122.564V180.464H118.349V193H114.909V180.464H112.099V177.764H114.909V170.96ZM128.014 200.359L138.11 177.69H141.29L131.416 200.359H128.014ZM131.786 193.111L124.427 177.69H128.31L134.486 191.373L131.786 193.111ZM157.545 166.263H161.132V193H157.545V166.263ZM171.031 177.69L171.327 181.425L171.179 180.834C171.672 179.699 172.473 178.8 173.582 178.134C174.692 177.444 175.974 177.099 177.428 177.099C178.883 177.099 180.066 177.53 180.978 178.393C181.915 179.231 182.396 180.328 182.421 181.684V193H178.945V182.904C178.92 182.066 178.673 181.388 178.205 180.871C177.761 180.328 177.059 180.057 176.097 180.057C175.21 180.057 174.408 180.303 173.693 180.797C172.978 181.29 172.411 181.968 171.992 182.83C171.598 183.693 171.401 184.692 171.401 185.826V193H167.961V177.69H171.031ZM194.073 193.444L185.567 177.69H189.635L195.404 189.857L193.296 189.783L198.584 177.69H202.43L194.258 193.444H194.073ZM212.872 193.37C211.122 193.37 209.618 193.025 208.361 192.334C207.103 191.619 206.13 190.658 205.439 189.45C204.774 188.217 204.441 186.812 204.441 185.234C204.441 183.73 204.823 182.362 205.587 181.129C206.352 179.897 207.375 178.911 208.657 178.171C209.939 177.431 211.369 177.062 212.946 177.062C214.968 177.062 216.644 177.653 217.976 178.837C219.307 180.02 220.207 181.647 220.675 183.718L208.065 188.156L207.251 186.122L217.606 182.35L216.866 182.83C216.57 182.017 216.077 181.314 215.387 180.723C214.697 180.106 213.797 179.798 212.687 179.798C211.751 179.798 210.912 180.032 210.173 180.501C209.433 180.944 208.854 181.561 208.435 182.35C208.016 183.139 207.806 184.038 207.806 185.049C207.806 186.109 208.028 187.046 208.472 187.86C208.916 188.649 209.52 189.277 210.284 189.746C211.073 190.19 211.96 190.411 212.946 190.411C213.612 190.411 214.253 190.288 214.869 190.042C215.51 189.795 216.102 189.475 216.644 189.08L218.235 191.632C217.47 192.149 216.607 192.569 215.646 192.889C214.709 193.21 213.785 193.37 212.872 193.37ZM229.274 193.296C228.189 193.296 227.129 193.111 226.094 192.741C225.083 192.347 224.245 191.767 223.579 191.003L225.022 189.006C225.662 189.622 226.316 190.091 226.981 190.411C227.672 190.707 228.35 190.855 229.015 190.855C229.508 190.855 229.965 190.794 230.384 190.67C230.803 190.547 231.136 190.35 231.382 190.079C231.653 189.783 231.789 189.388 231.789 188.895C231.789 188.353 231.604 187.921 231.234 187.601C230.889 187.28 230.433 187.022 229.866 186.824C229.324 186.627 228.744 186.442 228.128 186.27C226.871 185.851 225.909 185.271 225.243 184.532C224.578 183.792 224.245 182.892 224.245 181.832C224.245 181.018 224.442 180.267 224.837 179.576C225.256 178.861 225.86 178.282 226.649 177.838C227.462 177.394 228.461 177.173 229.644 177.173C230.704 177.173 231.653 177.308 232.491 177.579C233.33 177.826 234.119 178.245 234.858 178.837L233.49 180.981C233.046 180.513 232.516 180.168 231.9 179.946C231.283 179.724 230.729 179.601 230.236 179.576C229.817 179.552 229.41 179.613 229.015 179.761C228.646 179.909 228.337 180.119 228.091 180.39C227.844 180.661 227.721 180.981 227.721 181.351C227.721 181.869 227.894 182.288 228.239 182.609C228.584 182.929 229.028 183.188 229.57 183.385C230.137 183.558 230.692 183.743 231.234 183.94C231.998 184.162 232.676 184.458 233.268 184.827C233.86 185.197 234.328 185.653 234.673 186.196C235.043 186.738 235.228 187.416 235.228 188.23C235.228 189.142 235.006 189.992 234.562 190.781C234.143 191.545 233.49 192.162 232.602 192.63C231.74 193.074 230.63 193.296 229.274 193.296ZM241.523 170.96H244.962V177.764H249.178V180.464H244.962V193H241.523V180.464H238.713V177.764H241.523V170.96ZM256.403 177.69L256.699 181.129L256.551 180.834C257.118 179.675 257.919 178.763 258.955 178.097C260.015 177.431 261.223 177.099 262.579 177.099C263.441 177.099 264.206 177.234 264.871 177.505C265.537 177.777 266.079 178.171 266.498 178.689C266.942 179.182 267.226 179.798 267.349 180.538L267.164 180.649C267.756 179.539 268.569 178.676 269.605 178.06C270.665 177.419 271.774 177.099 272.933 177.099C274.437 177.099 275.62 177.53 276.483 178.393C277.371 179.231 277.827 180.328 277.851 181.684V193H274.412V182.904C274.388 182.116 274.19 181.462 273.821 180.944C273.475 180.402 272.859 180.106 271.972 180.057C271.084 180.057 270.283 180.328 269.568 180.871C268.878 181.413 268.335 182.116 267.941 182.978C267.546 183.817 267.337 184.729 267.312 185.715V193H263.873V182.904C263.848 182.116 263.639 181.462 263.244 180.944C262.874 180.402 262.246 180.106 261.358 180.057C260.446 180.057 259.645 180.328 258.955 180.871C258.264 181.413 257.722 182.116 257.327 182.978C256.958 183.841 256.773 184.766 256.773 185.752V193H253.334V177.69H256.403ZM290.95 193.37C289.199 193.37 287.695 193.025 286.438 192.334C285.181 191.619 284.207 190.658 283.517 189.45C282.851 188.217 282.518 186.812 282.518 185.234C282.518 183.73 282.9 182.362 283.664 181.129C284.429 179.897 285.452 178.911 286.734 178.171C288.016 177.431 289.446 177.062 291.024 177.062C293.045 177.062 294.722 177.653 296.053 178.837C297.384 180.02 298.284 181.647 298.752 183.718L286.142 188.156L285.329 186.122L295.683 182.35L294.943 182.83C294.648 182.017 294.155 181.314 293.464 180.723C292.774 180.106 291.874 179.798 290.765 179.798C289.828 179.798 288.99 180.032 288.25 180.501C287.51 180.944 286.931 181.561 286.512 182.35C286.093 183.139 285.883 184.038 285.883 185.049C285.883 186.109 286.105 187.046 286.549 187.86C286.993 188.649 287.597 189.277 288.361 189.746C289.15 190.19 290.037 190.411 291.024 190.411C291.689 190.411 292.33 190.288 292.947 190.042C293.587 189.795 294.179 189.475 294.722 189.08L296.312 191.632C295.547 192.149 294.685 192.569 293.723 192.889C292.786 193.21 291.862 193.37 290.95 193.37ZM306.131 177.69L306.427 181.425L306.279 180.834C306.772 179.699 307.573 178.8 308.683 178.134C309.792 177.444 311.074 177.099 312.529 177.099C313.983 177.099 315.167 177.53 316.079 178.393C317.016 179.231 317.496 180.328 317.521 181.684V193H314.045V182.904C314.02 182.066 313.774 181.388 313.305 180.871C312.861 180.328 312.159 180.057 311.197 180.057C310.31 180.057 309.509 180.303 308.794 180.797C308.079 181.29 307.512 181.968 307.093 182.83C306.698 183.693 306.501 184.692 306.501 185.826V193H303.062V177.69H306.131ZM324.981 170.96H328.42V177.764H332.636V180.464H328.42V193H324.981V180.464H322.171V177.764H324.981V170.96Z" fill="white"/>
<defs>
<clipPath id="clip0_336_1551">
<rect width="278" height="226.922" fill="white" transform="translate(28)"/>
</clipPath>
</defs>
</svg>
