<svg width="108" height="76" viewBox="0 0 108 76" fill="none" xmlns="http://www.w3.org/2000/svg">
<path d="M2.17483 74.83C7.89483 70.81 13.6048 66.8 19.3248 62.78L17.5048 62.55C20.7448 65.64 23.9948 68.73 27.2348 71.82C27.6948 72.26 28.4948 72.42 29.0548 72.05C39.0848 65.41 49.1248 58.76 59.1548 52.12C60.5548 51.19 61.9548 50.27 63.3548 49.34L61.5348 49.11C64.3148 52.05 67.0948 54.98 69.8748 57.92C70.3348 58.4 71.1248 58.48 71.6948 58.15C81.4448 52.46 91.1948 46.78 100.945 41.09C102.325 40.29 103.695 39.48 105.075 38.68C106.745 37.71 105.235 35.11 103.565 36.09C93.8148 41.78 84.0648 47.46 74.3148 53.15C72.9348 53.95 71.5648 54.76 70.1848 55.56L72.0048 55.79C69.2248 52.85 66.4448 49.92 63.6648 46.98C63.2348 46.52 62.3848 46.39 61.8448 46.75C51.8148 53.39 41.7748 60.04 31.7448 66.68C30.3448 67.61 28.9448 68.53 27.5448 69.46L29.3648 69.69C26.1248 66.6 22.8748 63.51 19.6348 60.42C19.1848 59.99 18.3648 59.8 17.8148 60.19C12.0948 64.21 6.38483 68.22 0.664833 72.24C-0.905167 73.34 0.594833 75.94 2.17483 74.83Z" fill="#17125E"/>
<path d="M95.8249 36.33C99.0249 36.9 102.215 37.48 105.415 38.05L104.315 36.6C104.055 39.48 103.805 42.37 103.545 45.25C103.505 45.66 103.475 46.07 103.435 46.48C103.365 47.29 104.175 47.98 104.935 47.98C105.805 47.98 106.365 47.29 106.435 46.48C106.695 43.6 106.945 40.71 107.205 37.83C107.245 37.42 107.275 37.01 107.315 36.6C107.365 36 106.815 35.26 106.215 35.15C103.015 34.58 99.8248 34 96.6248 33.43C95.8248 33.29 95.0048 33.65 94.7748 34.48C94.5748 35.21 95.0249 36.18 95.8249 36.33Z" fill="#17125E"/>
<path d="M6.35484 72.31V48.17C6.35484 39.5 6.16484 30.81 6.35484 22.14C6.40484 19.75 8.16484 18.03 10.5448 17.98C11.8648 17.96 13.1848 17.98 14.4948 17.98H31.2948C35.4448 17.98 39.5848 17.95 43.7348 17.98C46.1248 18 48.0248 19.62 48.0748 22.08C48.1048 23.24 48.0748 24.4 48.0748 25.56V56.3C48.0748 58.23 51.0748 58.23 51.0748 56.3V27.86C51.0748 23.69 51.8748 18.6 47.7148 16.03C46.0748 15.02 44.3248 14.98 42.4948 14.98H11.7248C9.73484 14.98 7.84484 15.14 6.17484 16.41C2.85484 18.93 3.36484 22.92 3.36484 26.58V42.45C3.36484 52.21 3.36484 61.97 3.36484 71.73V72.3C3.36484 74.23 6.36484 74.23 6.36484 72.3L6.35484 72.31Z" fill="#17125E"/>
<path d="M55.8747 52.73V12.41C55.8747 11.72 55.8047 10.97 55.9147 10.29C56.2247 8.23999 58.0347 7.63999 59.8047 7.63999H85.4147C86.6247 7.63999 87.9147 7.48999 88.9447 8.25999C90.2047 9.18999 90.2047 10.54 90.2047 11.91V43.38C90.2047 45.31 93.2047 45.31 93.2047 43.38V19.04C93.2047 16.19 93.3947 13.27 93.1947 10.42C92.9547 7.08999 90.2547 4.70999 86.9747 4.62999C85.7447 4.59999 84.5147 4.62999 83.2847 4.62999H68.1647C65.0247 4.62999 61.8147 4.41999 58.6747 4.63999C55.3547 4.86999 52.9747 7.55999 52.8847 10.83C52.8647 11.71 52.8847 12.59 52.8847 13.46V26.42C52.8847 35.02 52.7447 43.63 52.8847 52.23C52.8847 52.39 52.8847 52.55 52.8847 52.72C52.8847 54.65 55.8847 54.65 55.8847 52.72L55.8747 52.73Z" fill="#17125E"/>
<path d="M18.8949 27.11H11.5549V30.26H18.8949V27.11Z" fill="#17125E"/>
<path d="M30.8149 27.11H23.4749V30.26H30.8149V27.11Z" fill="#17125E"/>
<path d="M42.7248 27.11H35.3848V30.26H42.7248V27.11Z" fill="#17125E"/>
<path d="M18.8949 35.05H11.5549V38.2H18.8949V35.05Z" fill="#17125E"/>
<path d="M30.8149 35.05H23.4749V38.2H30.8149V35.05Z" fill="#17125E"/>
<path d="M42.7248 35.05H35.3848V38.2H42.7248V35.05Z" fill="#17125E"/>
<path d="M18.8949 43H11.5549V46.15H18.8949V43Z" fill="#17125E"/>
<path d="M30.8149 43H23.4749V46.15H30.8149V43Z" fill="#17125E"/>
<path d="M42.7248 43H35.3848V46.15H42.7248V43Z" fill="#17125E"/>
<path d="M63.6948 16.64H60.9648V43.29H63.6948V16.64Z" fill="#17125E"/>
<path d="M74.2949 16.64H71.5649V43.29H74.2949V16.64Z" fill="#17125E"/>
<path d="M84.8948 16.64H82.1648V43.29H84.8948V16.64Z" fill="#17125E"/>
<path d="M86.5648 4.64H59.9448L61.4448 6.14V1.5L59.9448 3H86.5648L85.0648 1.5V6.14C85.0648 8.07 88.0648 8.07 88.0648 6.14V1.5C88.0648 0.69 87.3748 0 86.5648 0H59.9448C59.1348 0 58.4448 0.69 58.4448 1.5V6.14C58.4448 6.95 59.1348 7.64 59.9448 7.64H86.5648C88.4948 7.64 88.4948 4.64 86.5648 4.64Z" fill="#17125E"/>
</svg>
