<svg width="138" height="143" viewBox="0 0 138 143" fill="none" xmlns="http://www.w3.org/2000/svg">
<g clip-path="url(#clip0_75_4113)">
<path d="M82.3401 48.2399C83.4901 49.7899 84.2301 51.4299 84.6101 53.2199C84.7001 53.6499 85.0201 53.4899 85.2501 53.4899C86.9801 53.4999 88.7101 53.4899 90.4401 53.4899C91.7201 53.4899 92.0701 53.8499 92.0701 55.1399C92.0701 56.1599 92.0701 57.1899 92.0701 58.2099C92.0701 59.1899 91.6801 59.5599 90.6901 59.5699C88.9401 59.5699 87.1801 59.5899 85.4301 59.5599C84.9601 59.5599 84.7601 59.6699 84.6601 60.1499C83.4301 66.0699 79.6501 69.5599 74.0201 71.3099C72.7401 71.7099 71.4301 71.9099 70.0501 72.1799C71.1001 73.3399 72.1301 74.4299 73.1201 75.5599C76.5801 79.4799 79.9801 83.4399 83.2601 87.5099C84.3901 88.9099 85.5301 90.2899 86.6801 91.6699C87.0101 92.0599 87.1401 92.4699 86.9001 92.9399C86.6601 93.4099 86.3001 93.6499 85.7301 93.6399C83.4401 93.6199 81.1501 93.6099 78.8601 93.6399C78.2301 93.6399 77.8701 93.2999 77.5301 92.8899C76.1801 91.2899 74.8701 89.6699 73.5201 88.0799C71.3001 85.4699 69.0501 82.8899 66.8201 80.2899C64.5501 77.6499 62.2201 75.0799 59.8501 72.5399C59.4801 72.1399 59.3001 71.7299 59.3201 71.1699C59.3501 69.8299 59.3201 68.4899 59.3301 67.1499C59.3301 66.1499 59.7501 65.7299 60.7301 65.7099C62.9201 65.6799 65.1201 65.8299 67.3001 65.5599C69.9801 65.2199 72.5301 64.5499 74.4801 62.4899C75.1401 61.7899 75.5501 60.9499 75.9201 60.0699C76.0801 59.6899 75.9901 59.5499 75.5701 59.5599C74.2301 59.5799 72.8901 59.5599 71.5501 59.5599C68.0201 59.5599 64.4801 59.5599 60.9501 59.5599C59.6401 59.5599 59.3401 59.2499 59.3401 57.9199C59.3401 56.8999 59.3401 55.8699 59.3401 54.8499C59.3401 53.9599 59.7101 53.5599 60.5901 53.4899C60.9301 53.4599 61.2701 53.4899 61.6101 53.4899C65.9701 53.4899 70.3301 53.4899 74.7001 53.4899C74.9301 53.4899 75.2701 53.6099 75.3701 53.3799C75.4901 53.1299 75.2101 52.9099 75.0601 52.6999C73.8001 50.9599 71.9901 50.1899 69.9701 49.7699C66.9901 49.1499 63.9601 49.3799 60.9601 49.3399C59.6501 49.3199 59.3501 49.0299 59.3401 47.6999C59.3401 46.3099 59.3401 44.9199 59.3401 43.5299C59.3401 42.5599 59.7401 42.1699 60.7201 42.1699C70.7101 42.1699 80.7001 42.1699 90.7001 42.1699C91.5501 42.1699 91.9901 42.5399 92.0201 43.3699C92.0601 44.5899 92.0601 45.8099 92.0201 47.0199C91.9901 47.8799 91.5401 48.2399 90.5401 48.2399C88.0501 48.2399 85.5701 48.2299 83.0801 48.2199C82.8701 48.2199 82.6701 48.2199 82.3501 48.2199L82.3401 48.2399Z" fill="url(#paint0_linear_75_4113)"/>
<path d="M17.87 78.6499H2.71C1.21331 78.6499 0 79.8632 0 81.3599V137.67C0 139.167 1.21331 140.38 2.71 140.38H17.87C19.3667 140.38 20.58 139.167 20.58 137.67V81.3599C20.58 79.8632 19.3667 78.6499 17.87 78.6499Z" fill="#C5D8E3"/>
<path d="M21.5901 90.1899C21.6701 90.1899 21.7501 90.2099 21.8301 90.2199C22.0401 90.2399 22.0701 90.2499 21.8201 90.2199C22.0101 90.2499 22.1901 90.2699 22.3801 90.2999C23.4101 90.4599 24.4401 90.6699 25.4501 90.8999C28.9901 91.7099 32.4601 92.8399 35.8101 94.2199C38.0901 95.1499 40.3101 96.2199 42.4801 97.3799C44.6501 98.5399 46.7901 99.7499 49.3001 100.19C50.3001 100.36 51.3201 100.49 52.3301 100.63C61.2301 101.9 70.1401 103.17 79.0401 104.45C80.6701 104.68 82.2301 105.24 83.5401 106.27C86.6701 108.72 87.2901 113.31 85.3001 116.68C84.3101 118.35 86.9101 119.86 87.8901 118.19C89.7801 115 89.9501 110.87 88.3501 107.55C86.9301 104.59 83.9801 102.42 80.8001 101.71C77.7901 101.03 74.6201 100.8 71.5701 100.37C66.1501 99.5999 60.7401 98.8199 55.3201 98.0499C53.8201 97.8399 52.3101 97.6299 50.8101 97.4099C46.9301 96.8399 43.7701 94.5699 40.2801 92.9399C34.4701 90.2299 28.0301 87.8199 21.5901 87.2099C19.6701 87.0299 19.6801 90.0299 21.5901 90.2099V90.1899Z" fill="#221F20"/>
<path d="M60.7401 120.17H79.5301C81.9501 120.17 84.4801 120.38 86.9001 120.17C88.1701 120.06 89.5801 119.14 90.7201 118.63L110.82 109.7C116.69 107.09 122.56 104.49 128.43 101.88C128.67 101.77 128.91 101.67 129.16 101.56C129.21 101.54 129.27 101.51 129.32 101.49C129.31 101.49 128.73 101.55 129.38 101.61C131.06 101.77 132.53 102.21 133.6 103.62C134.08 104.26 134.42 105.03 134.56 105.82C134.63 106.21 134.65 106.6 134.63 106.99C134.61 107.38 134.21 108.24 134.31 108.54C134.36 108.7 134.89 108.18 134.46 108.54C134.26 108.71 134.02 108.84 133.8 108.98L131.4 110.59L112.91 123.02C107.29 126.79 101.68 130.57 96.0601 134.34C93.6401 135.97 91.2101 137.45 88.3601 138.26C85.5101 139.07 82.6201 139.08 79.6901 139.08H48.2801C47.0601 139.08 46.2901 138.69 45.0701 138.29C41.0601 136.98 37.0601 135.67 33.0501 134.37C29.0401 133.07 25.1901 131.8 21.2701 130.52C19.4301 129.92 18.6401 132.82 20.4701 133.41C28.7201 136.1 36.9701 138.8 45.2201 141.49C46.3501 141.86 47.1601 142.08 48.2801 142.08H75.7601C77.9801 142.08 80.2001 142.08 82.4201 142.08C87.3301 142.06 92.0701 140.61 96.1501 137.89C100.82 134.77 105.48 131.62 110.14 128.49C116.87 123.97 123.59 119.45 130.32 114.93L135.76 111.27C136.94 110.48 137.35 109.19 137.54 107.79C137.99 104.38 136.17 100.91 133.05 99.4301C131.43 98.6601 129.31 98.2401 127.62 98.9801C126.95 99.2701 126.28 99.5701 125.62 99.8701L117.12 103.64C109.58 106.99 102.03 110.34 94.4901 113.69L87.2401 116.91C86.9801 117.03 86.7101 117.13 86.4601 117.26C85.8401 117.57 86.6501 116.99 86.9401 117.18C86.5701 116.94 85.2601 117.18 84.8401 117.18H60.7301C58.8001 117.18 58.8001 120.18 60.7301 120.18L60.7401 120.17Z" fill="#221F20"/>
<path d="M29.0901 89.0699C29.7901 70.1599 37.7701 52.0199 51.2701 38.7599C53.7401 36.3299 56.3801 34.0599 59.1701 31.9999H57.6601C68.3001 37.0399 80.6801 37.0399 91.3201 31.9999H89.8101C95.7101 35.7699 101.01 40.4999 105.64 45.8199C113.94 55.3799 119.59 67.2499 120.48 79.9799C121.07 88.4199 119.63 96.8199 116.62 104.7C115.93 106.5 118.83 107.29 119.51 105.5C123.15 95.9899 124.45 85.7199 123.01 75.6299C121.77 66.8999 118.37 58.5499 113.5 51.2199C109.65 45.4199 104.93 40.1899 99.6501 35.6499C97.8501 34.0999 95.9801 32.6299 94.0501 31.2499C93.4301 30.7999 92.8001 30.3699 92.1601 29.9399C91.1601 29.2799 90.5201 29.0799 89.3101 29.6399C79.8401 33.9899 68.5901 33.8599 59.1801 29.3999C58.7301 29.1799 58.1101 29.0699 57.6701 29.3999C42.7001 40.4799 31.9301 56.6699 27.9001 74.8999C26.8701 79.5499 26.2801 84.2999 26.1001 89.0599C26.0301 90.9899 29.0301 90.9899 29.1001 89.0599L29.0901 89.0699Z" fill="#221F20"/>
<path d="M65.25 19.94C63.28 17.61 61.7 14.91 60.67 12.03C60.03 10.24 59.56 8.37995 59.32 6.49995C59.22 5.67995 58.78 4.17995 59.89 4.63995C61.88 5.47995 63.47 6.59995 65.57 5.24995C66.36 4.73995 67.14 4.20995 67.92 3.67995C68.45 3.32995 68.64 3.10995 69.22 3.33995C70.71 3.93995 72.07 4.87995 73.53 5.55995C75.84 6.62995 77.64 4.95995 79.47 3.76995C80.36 3.18995 81.29 2.72995 82.36 3.18995C83.15 3.52995 83.87 4.23995 84.55 4.73995C85.58 5.50995 86.65 5.99995 87.97 5.60995C88.77 5.36995 89.54 4.90995 90.3 4.55995C91.43 4.02995 91.78 3.71995 91.68 5.28995C91.54 7.38995 91.09 9.45995 90.39 11.45C89.26 14.65 87.37 17.54 84.98 19.94C83.62 21.31 85.74 23.43 87.1 22.0599C89.45 19.6999 91.34 16.92 92.64 13.86C93.52 11.79 94.13 9.63995 94.45 7.41995C94.69 5.73995 95.15 3.59995 93.91 2.19995C92.84 0.999951 91.28 0.849951 89.87 1.46995C89.04 1.82995 88.12 2.52995 87.24 2.70995C86.58 2.84995 85.77 1.94995 85.22 1.53995C84.1 0.699951 82.97 0.0699512 81.52 0.0199512C80.07 -0.0300488 78.98 0.529951 77.86 1.24995C77.1 1.73995 76.22 2.55995 75.37 2.85995C74.75 3.07995 74.12 2.52995 73.55 2.22995C72.58 1.72995 71.63 1.21995 70.65 0.739951C69.44 0.139951 68.23 -0.0100488 67.01 0.689951C66.21 1.14995 65.45 1.72995 64.68 2.24995C63.99 2.70995 63.67 3.13995 62.94 2.78995C62.05 2.36995 61.1 1.78995 60.13 1.56995C58.12 1.10995 56.22 2.69995 56.16 4.71995C56.1 6.86995 56.65 9.21995 57.25 11.27C58.41 15.26 60.44 18.91 63.11 22.07C64.36 23.5399 66.47 21.41 65.23 19.95L65.25 19.94Z" fill="#221F20"/>
<path d="M88.1001 27.61C88.0301 29.84 86.4801 30.96 84.5001 31.53C82.1801 32.2 79.8001 32.65 77.3901 32.84C74.7301 33.05 72.0201 32.99 69.3801 32.6C67.3101 32.3 64.8601 31.96 62.9701 31.04C59.7401 29.46 60.1701 23.85 63.7901 23.05C64.7401 22.84 65.6501 23.11 66.5901 23.28C67.8601 23.51 69.1401 23.68 70.4301 23.81C73.0401 24.06 75.6801 24.07 78.3001 23.83C79.6601 23.71 81.0101 23.52 82.3501 23.28C83.4701 23.08 84.5001 22.78 85.6101 23.19C87.5801 23.92 88.1001 25.72 88.1001 27.62C88.1001 29.52 91.1001 29.55 91.1001 27.62C91.1001 25.25 90.5001 23.06 88.5901 21.51C86.3501 19.69 84.0101 19.96 81.3601 20.43C78.0501 21.01 74.6501 21.14 71.2901 20.89C69.7901 20.78 68.3001 20.58 66.8201 20.29C65.5201 20.04 64.3001 19.85 62.9901 20.17C58.0401 21.37 56.2601 27.88 59.2501 31.77C60.9601 33.99 63.7901 34.58 66.4001 35.13C69.5501 35.79 72.7901 36.08 76.0101 35.94C79.2301 35.8 82.7501 35.25 85.9601 34.24C88.9901 33.29 91.0001 30.83 91.1001 27.62C91.1601 25.69 88.1601 25.69 88.1001 27.62V27.61Z" fill="#221F20"/>
<path d="M33.1901 16.02C36.5401 18.12 39.7501 20.74 43.9301 20.45C45.5601 20.34 47.1901 20.17 48.8201 20.08C51.2301 19.95 52.9301 21.03 54.7901 22.34C56.2901 23.4 57.7801 24.46 59.2801 25.51C60.8601 26.63 62.3601 24.03 60.7901 22.92C59.5101 22.01 58.2301 21.11 56.9501 20.2C55.2801 19.02 53.6801 17.76 51.6201 17.3C47.4501 16.36 43.1301 18.68 39.2501 16.27C37.7301 15.33 36.2201 14.37 34.7101 13.41C33.0701 12.38 31.5601 14.97 33.2001 16L33.1901 16.02Z" fill="#221F20"/>
<path d="M37.3601 37.29C37.4401 37.09 37.1201 37.75 37.3401 37.35C37.4801 37.1 37.5901 36.85 37.7401 36.61C38.3401 35.59 38.5701 35.33 39.4401 34.44C41.9101 31.93 45.2901 30.42 48.7901 29.61C52.2901 28.8 55.5601 28.72 58.9701 28.89C60.9001 28.98 60.8901 25.98 58.9701 25.89C50.5901 25.48 40.2401 27.1 35.3301 34.8C34.9901 35.33 34.6901 35.9 34.4701 36.49C33.8001 38.3 36.7001 39.09 37.3601 37.29Z" fill="#221F20"/>
</g>
<defs>
<linearGradient id="paint0_linear_75_4113" x1="59.3101" y1="67.9199" x2="92.0701" y2="67.9199" gradientUnits="userSpaceOnUse">
<stop stop-color="#9BCB9E"/>
<stop offset="1" stop-color="#78C1C4"/>
</linearGradient>
<clipPath id="clip0_75_4113">
<rect width="137.62" height="142.09" fill="white"/>
</clipPath>
</defs>
</svg>
