<svg width="95" height="138" viewBox="0 0 95 138" fill="none" xmlns="http://www.w3.org/2000/svg">
<g clip-path="url(#clip0_75_2971)">
<path d="M27.9801 103.38C28.6201 104.24 29.0301 105.15 29.2401 106.14C29.2901 106.38 29.4701 106.29 29.5901 106.29C30.5501 106.29 31.5101 106.29 32.4701 106.29C33.1801 106.29 33.3701 106.49 33.3701 107.21C33.3701 107.78 33.3701 108.35 33.3701 108.91C33.3701 109.45 33.1501 109.66 32.6001 109.66C31.6301 109.66 30.6501 109.67 29.6801 109.66C29.4201 109.66 29.3101 109.72 29.2601 109.99C28.5801 113.27 26.4801 115.21 23.3601 116.18C22.6501 116.4 21.9201 116.51 21.1601 116.66C21.7401 117.3 22.3101 117.91 22.8601 118.53C24.7801 120.7 26.6601 122.9 28.4801 125.16C29.1101 125.94 29.7401 126.7 30.3801 127.47C30.5601 127.69 30.6301 127.91 30.5001 128.18C30.3701 128.44 30.1601 128.57 29.8501 128.57C28.5801 128.56 27.3101 128.55 26.0401 128.57C25.6901 128.57 25.4901 128.38 25.3001 128.15C24.5501 127.26 23.8301 126.36 23.0701 125.48C21.8401 124.03 20.5901 122.6 19.3501 121.16C18.0901 119.7 16.8001 118.27 15.4801 116.86C15.2701 116.64 15.1801 116.41 15.1801 116.1C15.2001 115.36 15.1801 114.61 15.1801 113.87C15.1801 113.31 15.4101 113.08 15.9601 113.07C17.1701 113.05 18.3901 113.14 19.6001 112.99C21.0901 112.8 22.5001 112.43 23.5801 111.28C23.9501 110.89 24.1701 110.42 24.3801 109.94C24.4701 109.73 24.4201 109.65 24.1801 109.66C23.4401 109.66 22.6901 109.66 21.9501 109.66C19.9901 109.66 18.0301 109.66 16.0701 109.66C15.3401 109.66 15.1801 109.49 15.1801 108.75C15.1801 108.18 15.1801 107.61 15.1801 107.05C15.1801 106.56 15.3801 106.33 15.8701 106.3C16.0601 106.29 16.2501 106.3 16.4401 106.3C18.8601 106.3 21.2801 106.3 23.7001 106.3C23.8301 106.3 24.0101 106.37 24.0701 106.24C24.1301 106.1 23.9801 105.98 23.9001 105.86C23.2001 104.89 22.1901 104.47 21.0801 104.24C19.4301 103.9 17.7501 104.02 16.0801 104C15.3501 104 15.1801 103.83 15.1801 103.09C15.1801 102.32 15.1801 101.55 15.1801 100.78C15.1801 100.24 15.4001 100.03 15.9401 100.03C21.4801 100.03 27.0201 100.03 32.5601 100.03C33.0301 100.03 33.2801 100.23 33.2901 100.7C33.3101 101.37 33.3101 102.05 33.2901 102.73C33.2801 103.21 33.0201 103.41 32.4701 103.41C31.0901 103.41 29.7101 103.41 28.3301 103.4C28.2201 103.4 28.1001 103.4 27.9301 103.4L27.9801 103.38Z" fill="url(#paint0_linear_75_2971)"/>
<path d="M41.87 23.09C42 23.13 42.12 23.18 42.25 23.23C42.39 23.28 42.53 23.34 42.66 23.39C42.87 23.47 42.33 23.24 42.64 23.39C42.77 23.45 42.9 23.5 43.02 23.56C44.22 24.1 45.38 24.74 46.49 25.45C49.82 27.59 52.68 30.51 54.57 34.04C55.98 36.67 56.78 39.6 57.04 42.57C57.2 44.48 60.21 44.5 60.04 42.57C59.56 37 57.46 31.82 53.71 27.65C51.27 24.94 48.22 22.7 44.92 21.14C44.19 20.79 43.44 20.45 42.67 20.2C40.83 19.59 40.04 22.49 41.87 23.09Z" fill="#C1D9E5"/>
<path d="M20.62 1.50003C20.72 6.67003 21.79 12.01 23.46 16.88C26.44 25.62 32.28 33.68 41.65 36.02C44.38 36.7 47.23 36.9 50.03 36.71C51.74 36.6 53.44 36.35 55.11 36.01C55.94 35.84 56.81 35.76 57.29 34.98C57.99 33.83 58.39 32.29 58.75 31C60.35 25.28 60.2 18.91 57.12 13.69C51.43 4.12003 38.87 1.40003 28.66 0.410034C26.48 0.200034 24.3 0.0700336 22.12 3.35978e-05C20.19 -0.0599664 20.19 2.94003 22.12 3.00003C29.4 3.24003 36.85 4.05003 43.68 6.75003C47.59 8.29003 51.5 10.81 53.83 14.16C54.83 15.59 55.47 16.91 55.95 18.41C56.19 19.17 56.38 19.95 56.52 20.73C56.55 20.91 56.58 21.09 56.61 21.27C56.64 21.45 56.61 21.21 56.64 21.54C56.68 21.94 56.72 22.34 56.74 22.73C56.81 24.11 56.74 25.49 56.57 26.85C56.62 26.48 56.5 27.31 56.47 27.48C56.41 27.81 56.35 28.13 56.28 28.45C56.17 29 56.03 29.54 55.89 30.08C55.63 31.01 55.32 31.93 54.98 32.83C54.91 33.01 54.69 33.5 54.93 32.96C54.92 32.98 54.79 33.28 54.79 33.28C54.79 33.28 54.68 33.51 54.67 33.55L55.57 32.86C50.54 34.02 45.23 34.28 40.32 32.48C36.64 31.14 33.48 28.56 31.15 25.44C27.01 19.91 24.93 12.64 24.04 6.10003C23.87 4.84003 23.67 3.01003 23.64 1.50003C23.6 -0.429966 20.6 -0.429966 20.64 1.50003H20.62Z" fill="#C1D9E5"/>
<path d="M74.16 27.14C72.53 27.39 70.93 28 69.44 28.66C66.18 30.09 63.31 32.32 61.16 35.17C59.6 37.24 58.52 39.64 57.87 42.15C57.38 44.02 60.28 44.82 60.76 42.95C61.29 40.91 62.12 39 63.33 37.27C63.8 36.59 64.35 35.94 64.97 35.3C65.28 34.99 65.59 34.69 65.92 34.4C66.06 34.28 66.2 34.16 66.34 34.04C66.42 33.97 66.5 33.91 66.58 33.84C66.58 33.84 66.95 33.56 66.77 33.69C67.96 32.79 69.26 32.03 70.61 31.41C70.76 31.34 70.91 31.28 71.06 31.21C70.76 31.34 71.15 31.18 71.24 31.14C71.51 31.03 71.78 30.93 72.05 30.83C72.52 30.66 73 30.51 73.48 30.38C73.96 30.25 74.46 30.12 74.95 30.04C75.75 29.92 76.19 28.91 76 28.19C75.76 27.33 74.96 27.02 74.15 27.14H74.16Z" fill="#C1D9E5"/>
<path d="M91.24 15.3301C90.62 18.5901 89.42 21.8401 88.02 24.7201C85.47 29.9501 81.53 35.0101 75.67 36.5901C71.33 37.7701 66.84 36.7601 62.78 35.0701L63.83 36.1201C63.77 35.9001 63.71 35.6801 63.66 35.4601C63.6 35.2101 63.55 34.9601 63.51 34.7101C63.48 34.5501 63.46 34.4001 63.43 34.2401C63.39 33.9801 63.36 33.7401 63.4 34.0301C63.29 33.1601 63.23 32.2901 63.22 31.4101C63.22 30.9101 63.23 30.4101 63.27 29.9201C63.29 29.6601 63.31 29.4001 63.34 29.1401C63.37 28.8401 63.34 29.1401 63.34 29.0501C63.36 28.8801 63.39 28.7201 63.42 28.5501C63.83 26.1601 64.68 24.0701 66.11 22.3901C68.14 20.0001 70.87 18.5301 73.94 17.6601C79.84 15.9901 86.27 16.3601 92.28 17.1801C93.09 17.2901 93.88 16.9801 94.13 16.1301C94.33 15.4301 93.88 14.3901 93.08 14.2801C84.21 13.0801 73.21 12.4001 65.81 18.4701C61.85 21.7201 60.1 26.7801 60.22 31.7901C60.26 33.3001 60.44 34.8301 60.77 36.3001C60.83 36.5701 60.89 36.8401 61 37.0901C61.53 38.2401 63.66 38.6401 64.81 39.0001C65.96 39.3601 67.19 39.6501 68.41 39.8301C72.56 40.4501 76.76 39.9001 80.46 37.8401C83.69 36.0401 86.28 33.2801 88.31 30.2401C91.05 26.1501 93.11 21.2301 94.07 16.3901C94.09 16.3001 94.11 16.2101 94.12 16.1201C94.48 14.2301 91.59 13.4301 91.23 15.3201L91.24 15.3301Z" fill="#C1D9E5"/>
<path d="M68.5501 64.9801C71.2701 66.7101 73.8001 68.8401 75.7501 71.4301C77.4301 73.6701 78.9801 76.0101 80.5201 78.3501C83.0201 82.1601 85.0901 86.0201 86.6101 90.3501C89.2001 97.7201 90.2101 105.86 88.0001 113.47C86.9201 117.19 84.5301 120.41 81.0501 122.24C79.0301 123.3 76.4401 122.84 74.2401 122.82C71.7601 122.79 69.2801 122.77 66.8001 122.74C59.7301 122.66 52.6601 122.58 45.5801 122.58C43.6501 122.58 43.6501 125.58 45.5801 125.58C51.9901 125.58 58.4001 125.65 64.8201 125.72C67.4601 125.75 70.1101 125.78 72.7501 125.8C75.2201 125.83 77.9901 126.22 80.4201 125.66C82.5601 125.17 84.4001 123.73 86.0101 122.31C87.5201 120.98 88.7601 119.33 89.6401 117.51C91.2401 114.19 91.8901 110.4 92.1301 106.75C92.4401 102.18 91.8101 97.5601 90.6201 93.1501C89.2201 87.9701 87.0701 82.9301 84.1501 78.4301C82.3901 75.7201 80.6101 73.0101 78.7001 70.4001C76.3401 67.1801 73.4301 64.5301 70.0601 62.3901C68.4201 61.3501 66.9201 63.9501 68.5501 64.9801Z" fill="#231F20"/>
<path d="M46.67 61.51C44.15 63.56 41.84 65.92 39.64 68.32C37.44 70.72 35.42 73.21 33.53 75.82C31.74 78.3 29.87 80.94 28.62 83.74C27.86 85.44 27.15 87.17 26.42 88.88C25.69 90.59 28.25 92.17 29.01 90.39C29.66 88.88 30.31 87.36 30.95 85.85C32.02 83.36 33.54 81.04 35.07 78.81C38.31 74.09 42.12 69.74 46.3 65.83C47.11 65.08 47.92 64.32 48.78 63.63C50.28 62.41 48.14 60.3 46.66 61.51H46.67Z" fill="#231F20"/>
<path d="M67.41 62.74C67.35 63.99 66.4 64.42 65.3 64.52C63.64 64.67 61.98 64.77 60.32 64.81C58.66 64.85 56.91 64.84 55.2 64.77C53.74 64.71 51.92 64.83 50.51 64.39C48.17 63.66 49.52 60.6 51.24 60.05C52.53 59.64 54.19 60.02 55.53 60.05C57.31 60.1 59.09 60.1 60.87 60.05C61.83 60.03 62.79 59.99 63.75 59.94C64.39 59.91 65.01 59.85 65.62 60.1C66.69 60.53 67.4 61.58 67.4 62.73C67.4 64.66 70.4 64.66 70.4 62.73C70.4 61.08 69.66 59.42 68.4 58.34C66.85 57.02 65.13 56.87 63.18 56.97C60.82 57.08 58.46 57.11 56.11 57.06C54.15 57.02 51.94 56.57 50.06 57.28C46.8 58.51 44.99 62.81 47.33 65.7C48.67 67.36 50.62 67.46 52.6 67.61C54.9 67.79 57.21 67.86 59.52 67.82C61.83 67.78 64.5 67.86 66.8 67.32C68.95 66.81 70.3 64.87 70.4 62.73C70.49 60.8 67.49 60.8 67.4 62.73L67.41 62.74Z" fill="#231F20"/>
<path d="M67.61 59.18C69.96 56.21 72.11 52.91 73.41 49.35C74.14 47.36 74.65 44.85 73.48 42.92C72.14 40.72 69.74 41.09 68 42.67C68.03 42.64 67.37 43.27 67.38 43.3H67.65C67.97 43.35 68 43.3 67.76 43.16C67.66 42.95 67.2 42.72 67.01 42.6C66.45 42.22 65.83 41.92 65.19 41.71C63.62 41.19 61.92 41.4 60.46 42.15C60.04 42.37 59.66 42.64 59.29 42.92C59.13 43.05 58.97 43.22 58.79 43.32C58.61 43.42 59.49 43.57 58.81 43.36C58.27 43.19 57.66 42.44 57.13 42.15C55.77 41.42 54.18 41.09 52.67 41.54C51.75 41.81 50.94 42.34 50.24 42.97C50.2 43 49.74 43.43 49.75 43.45L50.25 43.39L50.11 43.3C50.02 43.14 49.62 43 49.47 42.91C48.5 42.37 47.4 41.87 46.26 41.85C42.71 41.76 42.68 46.09 43.46 48.53C44.09 50.51 45.16 52.43 46.02 54.31C46.82 56.05 47.62 57.78 48.41 59.52C49.2 61.26 51.8 59.75 51 58.01C49.68 55.13 48.35 52.25 47.03 49.37C46.76 48.77 46.47 48.18 46.29 47.55C46.06 46.78 46 46.03 46.03 45.23C46.03 45.14 46.07 44.93 46.1 44.88C46.09 44.91 45.9 44.98 46.14 44.85C46.38 44.72 47.5 45.26 47.95 45.51C49.03 46.12 50.11 46.75 51.33 46C52.06 45.56 52.5 44.8 53.32 44.49C53.89 44.27 54.48 44.3 55.05 44.49C56.17 44.88 56.85 45.96 57.93 46.34C59.83 47.01 60.71 45.19 62.26 44.59C63.35 44.17 64.45 44.48 65.38 45.1C66.51 45.85 67.53 46.66 68.93 45.84C69.59 45.45 69.98 44.74 70.65 44.37C70.75 44.32 70.93 44.28 70.93 44.28C70.97 44.21 70.67 44.25 70.78 44.24C70.62 44.26 70.55 43.93 70.67 44.17C70.74 44.3 70.83 44.35 70.88 44.42C71.01 44.61 71.11 44.91 71.14 45.1C71.28 45.94 71.06 46.83 70.82 47.63C70.14 49.92 68.89 52.04 67.6 54.03C67.09 54.81 66.57 55.58 66.02 56.33C65.85 56.56 65.68 56.78 65.51 57.01C65.27 57.33 65.69 56.78 65.48 57.04C64.29 58.54 66.4 60.68 67.6 59.16L67.61 59.18Z" fill="#231F20"/>
<path d="M70.1 61.73C70.86 60.16 72.57 59.15 74.07 58.36C75.93 57.37 77.74 57.42 79.8 57.58C81.4 57.7 83.01 57.71 84.52 57.11C86.22 56.44 87.66 55.34 88.94 54.05C90.3 52.68 88.18 50.56 86.82 51.93C85.72 53.04 84.46 54.08 82.92 54.49C81.26 54.94 79.21 54.42 77.37 54.46C75.33 54.5 73.45 55.2 71.73 56.26C70.01 57.32 68.39 58.45 67.52 60.23C66.65 62.01 69.26 63.48 70.11 61.74L70.1 61.73Z" fill="#231F20"/>
<path d="M69.33 64.02C72.61 63.14 76.08 63.62 78.96 65.45C80.08 66.16 81.06 67.06 81.92 68.07C82 68.16 82.08 68.26 82.15 68.35C82.18 68.39 82.43 68.71 82.33 68.57C82.22 68.42 82.42 68.69 82.44 68.72C82.51 68.81 82.57 68.9 82.64 69C82.82 69.26 82.99 69.53 83.16 69.8C84.15 71.45 86.75 69.95 85.75 68.29C84.41 66.06 82.52 64.13 80.31 62.76C76.8 60.6 72.51 60.08 68.55 61.14C66.69 61.64 67.48 64.53 69.35 64.03L69.33 64.02Z" fill="#231F20"/>
<path d="M46.29 113.29C46.22 122.32 40.51 130.68 31.92 133.7C23.33 136.73 13.68 134.03 7.86003 127.04C2.04003 120.05 1.39003 109.88 6.01003 102.16C10.63 94.4401 19.96 90.2201 28.84 92.0201C38.92 94.0601 46.2 103.03 46.28 113.28C46.29 115.21 49.29 115.21 49.28 113.28C49.2 102.96 42.72 93.6601 33.02 90.0901C23.35 86.5201 12 89.6501 5.52003 97.6601C-0.939966 105.64 -1.88997 117.07 3.41003 125.93C8.71004 134.79 19.29 139.46 29.46 137.48C40.91 135.25 49.18 124.86 49.27 113.29C49.28 111.36 46.28 111.36 46.27 113.29H46.29Z" fill="#231F20"/>
</g>
<defs>
<linearGradient id="paint0_linear_75_2971" x1="15.2101" y1="114.3" x2="33.3801" y2="114.3" gradientUnits="userSpaceOnUse">
<stop stop-color="#8DCC9A"/>
<stop offset="1" stop-color="#5DC4C6"/>
</linearGradient>
<clipPath id="clip0_75_2971">
<rect width="94.18" height="137.93" fill="white"/>
</clipPath>
</defs>
</svg>
