<svg width="108" height="132" viewBox="0 0 108 132" fill="none" xmlns="http://www.w3.org/2000/svg">
<g clip-path="url(#clip0_9_1389)">
<path d="M83.8499 82.31C83.7899 88.76 79.7699 94.76 73.6399 96.98C67.4199 99.23 60.4299 97.34 56.1799 92.29C51.9299 87.24 51.4599 79.88 54.8099 74.29C58.1599 68.7 64.8399 65.68 71.2299 66.98C78.5299 68.45 83.7699 74.9 83.8499 82.32C83.8699 84.25 86.8699 84.25 86.8499 82.32C86.7699 74.52 81.9099 67.54 74.5999 64.82C67.2899 62.1 58.7499 64.46 53.8599 70.48C48.9699 76.5 48.1999 85.29 52.3099 92.01C56.3699 98.65 64.2499 102.06 71.8699 100.59C80.5399 98.93 86.7699 91.06 86.8499 82.32C86.8699 80.39 83.8699 80.39 83.8499 82.32V82.31Z" fill="#231F20"/>
<path d="M18.3099 88.79H10.1499C8.65325 88.79 7.43994 90.0033 7.43994 91.5V126.83C7.43994 128.327 8.65325 129.54 10.1499 129.54H18.3099C19.8066 129.54 21.0199 128.327 21.0199 126.83V91.5C21.0199 90.0033 19.8066 88.79 18.3099 88.79Z" fill="#C1D9E5"/>
<path d="M21.6899 96.91C22.2099 96.96 21.4899 96.86 22.0699 96.96C22.7199 97.07 23.3799 97.19 24.0199 97.34C26.2999 97.85 28.5299 98.57 30.6899 99.44C32.1899 100.05 33.6499 100.74 35.0799 101.5C36.5099 102.26 37.7799 103.02 39.3199 103.37C40.0599 103.54 40.8199 103.62 41.5699 103.73C47.4599 104.57 53.3599 105.41 59.2499 106.26C60.1599 106.39 61.0099 106.61 61.8199 107.1C64.0299 108.46 64.5799 111.42 63.2899 113.62C62.3099 115.29 64.8999 116.8 65.8799 115.13C68.5099 110.63 66.0799 104.78 61.0199 103.53C59.0099 103.04 56.8699 102.91 54.8299 102.62C51.2199 102.1 47.5999 101.59 43.9899 101.07C43.0299 100.93 42.0699 100.8 41.1099 100.66C38.5399 100.28 36.4699 98.77 34.1499 97.7C30.2599 95.9 25.9899 94.32 21.6899 93.91C19.7699 93.73 19.7799 96.73 21.6899 96.91Z" fill="#231F20"/>
<path d="M47.53 116.71H59.94C61.53 116.71 63.22 116.88 64.8 116.71C65.69 116.62 66.62 116.05 67.43 115.69C75.73 112 84.03 108.32 92.33 104.63C92.57 104.52 92.83 104.37 93.09 104.29C92.25 104.53 93.43 104.48 93.75 104.57C94.2 104.7 94.61 104.94 94.94 105.27C95.31 105.63 95.58 106.1 95.71 106.6C95.78 106.86 95.8 107.1 95.8 107.36L95.78 107.74C95.58 108.11 95.61 108.21 95.89 108.05C95.89 108.15 96.2 107.83 95.92 108.09C95.79 108.21 95.61 108.3 95.47 108.39L93.89 109.45C89.82 112.18 85.75 114.92 81.68 117.65C77.99 120.13 74.29 122.61 70.6 125.1C69.06 126.13 67.52 127.09 65.71 127.61C63.81 128.16 61.92 128.15 59.97 128.15H39.3C38.55 128.15 38.18 127.92 37.4 127.67C34.73 126.8 32.06 125.93 29.4 125.06C26.74 124.19 24.22 123.37 21.63 122.52C19.79 121.92 19 124.82 20.83 125.41C26.32 127.2 31.82 129 37.31 130.79C38.78 131.27 40.2 131.15 41.74 131.15H57.61C59.03 131.15 60.45 131.16 61.87 131.15C65.21 131.12 68.41 130.15 71.19 128.3C74.35 126.2 77.49 124.07 80.64 121.95C85.09 118.96 89.54 115.97 93.98 112.98C95.12 112.22 96.27 111.47 97.39 110.69C98.35 110.02 98.7 108.88 98.78 107.74C98.94 105.54 97.81 103.35 95.9 102.24C94.61 101.49 92.91 101.16 91.51 101.72C91.12 101.87 90.75 102.06 90.37 102.23L84.93 104.65C79.91 106.88 74.9 109.1 69.88 111.33L64.94 113.52C64.72 113.62 64.27 113.72 64.1 113.89C64.33 113.65 65.21 113.76 64.56 113.69C64.25 113.66 63.92 113.69 63.62 113.69H47.55C45.62 113.69 45.62 116.69 47.55 116.69L47.53 116.71Z" fill="#231F20"/>
<path d="M2.17996 74.83C7.89996 70.81 13.61 66.8 19.33 62.78L17.51 62.55C20.75 65.64 24 68.73 27.24 71.82C27.7 72.26 28.5 72.42 29.06 72.05C39.09 65.41 49.13 58.76 59.16 52.12C60.56 51.19 61.96 50.27 63.36 49.34L61.54 49.11C64.32 52.05 67.1 54.98 69.88 57.92C70.34 58.4 71.13 58.48 71.7 58.15C81.45 52.46 91.2 46.78 100.95 41.09C102.33 40.29 103.7 39.48 105.08 38.68C106.75 37.71 105.24 35.11 103.57 36.09C93.82 41.78 84.07 47.46 74.32 53.15C72.94 53.95 71.57 54.76 70.19 55.56L72.01 55.79C69.23 52.85 66.45 49.92 63.67 46.98C63.24 46.52 62.39 46.39 61.85 46.75C51.82 53.39 41.78 60.04 31.75 66.68C30.35 67.61 28.95 68.53 27.55 69.46L29.37 69.69C26.13 66.6 22.88 63.51 19.64 60.42C19.19 59.99 18.37 59.8 17.82 60.19C12.1 64.21 6.38996 68.22 0.66996 72.24C-0.90004 73.34 0.59996 75.94 2.17996 74.83Z" fill="#231F20"/>
<path d="M95.83 36.33C99.03 36.9 102.22 37.48 105.42 38.05L104.32 36.6C104.06 39.48 103.81 42.37 103.55 45.25C103.51 45.66 103.48 46.07 103.44 46.48C103.37 47.29 104.18 47.98 104.94 47.98C105.81 47.98 106.37 47.29 106.44 46.48C106.7 43.6 106.95 40.71 107.21 37.83C107.25 37.42 107.28 37.01 107.32 36.6C107.37 36 106.82 35.26 106.22 35.15C103.02 34.58 99.83 34 96.63 33.43C95.83 33.29 95.01 33.65 94.78 34.48C94.58 35.21 95.03 36.18 95.83 36.33Z" fill="#231F20"/>
<path d="M6.35997 72.31V48.17C6.35997 39.5 6.16997 30.81 6.35997 22.14C6.40997 19.75 8.16997 18.03 10.55 17.98C11.87 17.96 13.19 17.98 14.5 17.98H31.3C35.45 17.98 39.59 17.95 43.74 17.98C46.13 18 48.03 19.62 48.08 22.08C48.11 23.24 48.08 24.4 48.08 25.56V56.3C48.08 58.23 51.08 58.23 51.08 56.3V27.86C51.08 23.69 51.88 18.6 47.72 16.03C46.08 15.02 44.33 14.98 42.5 14.98H11.73C9.73997 14.98 7.84997 15.14 6.17997 16.41C2.85997 18.93 3.36997 22.92 3.36997 26.58V42.45C3.36997 52.21 3.36997 61.97 3.36997 71.73V72.3C3.36997 74.23 6.36997 74.23 6.36997 72.3L6.35997 72.31Z" fill="#231F20"/>
<path d="M55.88 52.73V12.41C55.88 11.72 55.81 10.97 55.92 10.29C56.23 8.23999 58.04 7.63999 59.81 7.63999H85.42C86.63 7.63999 87.92 7.48999 88.95 8.25999C90.21 9.18999 90.21 10.54 90.21 11.91V43.38C90.21 45.31 93.21 45.31 93.21 43.38V19.04C93.21 16.19 93.4 13.27 93.2 10.42C92.96 7.08999 90.26 4.70999 86.98 4.62999C85.75 4.59999 84.52 4.62999 83.29 4.62999H68.17C65.03 4.62999 61.82 4.41999 58.68 4.63999C55.36 4.86999 52.98 7.55999 52.89 10.83C52.87 11.71 52.89 12.59 52.89 13.46V26.42C52.89 35.02 52.75 43.63 52.89 52.23C52.89 52.39 52.89 52.55 52.89 52.72C52.89 54.65 55.89 54.65 55.89 52.72L55.88 52.73Z" fill="#231F20"/>
<path d="M18.8999 27.11H11.5599V30.26H18.8999V27.11Z" fill="#231F20"/>
<path d="M30.82 27.11H23.48V30.26H30.82V27.11Z" fill="#231F20"/>
<path d="M42.73 27.11H35.39V30.26H42.73V27.11Z" fill="#231F20"/>
<path d="M18.8999 35.05H11.5599V38.2H18.8999V35.05Z" fill="#231F20"/>
<path d="M30.82 35.05H23.48V38.2H30.82V35.05Z" fill="#231F20"/>
<path d="M42.73 35.05H35.39V38.2H42.73V35.05Z" fill="#231F20"/>
<path d="M18.8999 43H11.5599V46.15H18.8999V43Z" fill="#231F20"/>
<path d="M30.82 43H23.48V46.15H30.82V43Z" fill="#231F20"/>
<path d="M42.73 43H35.39V46.15H42.73V43Z" fill="#231F20"/>
<path d="M63.7 16.64H60.97V43.29H63.7V16.64Z" fill="#231F20"/>
<path d="M74.2999 16.64H71.5699V43.29H74.2999V16.64Z" fill="#231F20"/>
<path d="M84.8999 16.64H82.1699V43.29H84.8999V16.64Z" fill="#231F20"/>
<path d="M86.57 4.64H59.95L61.45 6.14V1.5L59.95 3H86.57L85.07 1.5V6.14C85.07 8.07 88.07 8.07 88.07 6.14V1.5C88.07 0.69 87.38 0 86.57 0H59.95C59.14 0 58.45 0.69 58.45 1.5V6.14C58.45 6.95 59.14 7.64 59.95 7.64H86.57C88.5 7.64 88.5 4.64 86.57 4.64Z" fill="#231F20"/>
<path d="M71.25 74.46C71.74 75.13 72.06 75.83 72.23 76.6C72.27 76.78 72.41 76.71 72.5 76.72C73.24 76.72 73.99 76.72 74.73 76.72C75.28 76.72 75.43 76.88 75.43 77.43C75.43 77.87 75.43 78.31 75.43 78.75C75.43 79.17 75.26 79.33 74.84 79.33C74.09 79.33 73.33 79.33 72.58 79.33C72.38 79.33 72.29 79.38 72.25 79.58C71.72 82.12 70.1 83.62 67.69 84.37C67.14 84.54 66.58 84.63 65.98 84.74C66.43 85.24 66.87 85.71 67.3 86.19C68.78 87.87 70.24 89.57 71.65 91.32C72.13 91.92 72.63 92.52 73.12 93.11C73.26 93.28 73.32 93.45 73.21 93.66C73.11 93.86 72.95 93.96 72.71 93.96C71.73 93.96 70.74 93.95 69.76 93.96C69.49 93.96 69.33 93.81 69.19 93.64C68.61 92.95 68.05 92.26 67.47 91.57C66.52 90.45 65.55 89.34 64.59 88.23C63.62 87.1 62.61 85.99 61.6 84.9C61.44 84.73 61.37 84.55 61.37 84.31C61.38 83.74 61.37 83.16 61.37 82.58C61.37 82.15 61.55 81.97 61.97 81.96C62.91 81.95 63.85 82.01 64.79 81.89C65.94 81.75 67.03 81.46 67.87 80.57C68.15 80.27 68.33 79.91 68.49 79.53C68.56 79.37 68.52 79.31 68.34 79.31C67.76 79.31 67.19 79.31 66.61 79.31C65.09 79.31 63.58 79.31 62.06 79.31C61.5 79.31 61.37 79.18 61.37 78.6C61.37 78.16 61.37 77.72 61.37 77.28C61.37 76.9 61.53 76.73 61.91 76.7C62.06 76.69 62.2 76.7 62.35 76.7C64.22 76.7 66.09 76.7 67.97 76.7C68.07 76.7 68.21 76.75 68.26 76.65C68.31 76.54 68.19 76.45 68.13 76.36C67.59 75.61 66.81 75.28 65.94 75.1C64.66 74.83 63.36 74.93 62.07 74.92C61.51 74.92 61.38 74.79 61.38 74.22C61.38 73.62 61.38 73.03 61.38 72.43C61.38 72.01 61.55 71.85 61.97 71.85C66.26 71.85 70.55 71.85 74.84 71.85C75.2 71.85 75.39 72.01 75.41 72.37C75.43 72.89 75.43 73.42 75.41 73.94C75.4 74.31 75.2 74.46 74.78 74.46C73.71 74.46 72.65 74.46 71.58 74.46C71.49 74.46 71.4 74.46 71.27 74.46H71.25Z" fill="url(#paint0_linear_9_1389)"/>
</g>
<defs>
<linearGradient id="paint0_linear_9_1389" x1="61.37" y1="82.91" x2="75.43" y2="82.91" gradientUnits="userSpaceOnUse">
<stop stop-color="#8DCC9A"/>
<stop offset="1" stop-color="#5DC4C6"/>
</linearGradient>
<clipPath id="clip0_9_1389">
<rect width="107.33" height="131.18" fill="white"/>
</clipPath>
</defs>
</svg>
