<svg width="133" height="117" viewBox="0 0 133 117" fill="none" xmlns="http://www.w3.org/2000/svg">
<g clip-path="url(#clip0_9_1331)">
<path d="M52.7298 75.91C53.4798 76.92 53.9598 77.98 54.2098 79.14C54.2698 79.42 54.4798 79.31 54.6198 79.32C55.7398 79.32 56.8698 79.32 57.9898 79.32C58.8198 79.32 59.0498 79.56 59.0498 80.39C59.0498 81.06 59.0498 81.72 59.0498 82.39C59.0498 83.02 58.7898 83.27 58.1498 83.27C57.0098 83.27 55.8698 83.28 54.7298 83.27C54.4198 83.27 54.2998 83.34 54.2298 83.65C53.4298 87.5 50.9698 89.77 47.3198 90.91C46.4898 91.17 45.6398 91.3 44.7398 91.48C45.4198 92.23 46.0898 92.95 46.7398 93.68C48.9898 96.23 51.1998 98.81 53.3298 101.45C54.0598 102.36 54.8098 103.26 55.5598 104.16C55.7698 104.42 55.8598 104.68 55.6998 104.99C55.5498 105.3 55.3098 105.45 54.9398 105.45C53.4498 105.44 51.9598 105.43 50.4698 105.45C50.0598 105.45 49.8298 105.23 49.5998 104.96C48.7298 103.92 47.8698 102.87 46.9898 101.83C45.5498 100.13 44.0898 98.45 42.6298 96.76C41.1598 95.05 39.6398 93.37 38.0998 91.72C37.8598 91.46 37.7398 91.19 37.7498 90.83C37.7698 89.96 37.7498 89.09 37.7498 88.22C37.7498 87.57 38.0198 87.29 38.6598 87.29C40.0798 87.27 41.5098 87.37 42.9298 87.19C44.6698 86.97 46.3298 86.54 47.5998 85.19C48.0298 84.73 48.2998 84.19 48.5398 83.62C48.6398 83.37 48.5898 83.28 48.3098 83.29C47.4398 83.3 46.5698 83.29 45.6998 83.29C43.3998 83.29 41.1098 83.29 38.8098 83.29C37.9598 83.29 37.7598 83.09 37.7598 82.22C37.7598 81.55 37.7598 80.89 37.7598 80.22C37.7598 79.64 37.9998 79.38 38.5698 79.34C38.7898 79.32 39.0098 79.34 39.2398 79.34C42.0798 79.34 44.9098 79.34 47.7498 79.34C47.8998 79.34 48.1198 79.42 48.1898 79.27C48.2698 79.11 48.0898 78.97 47.9898 78.83C47.1698 77.7 45.9898 77.2 44.6798 76.93C42.7398 76.53 40.7798 76.67 38.8198 76.65C37.9698 76.64 37.7698 76.45 37.7698 75.59C37.7698 74.69 37.7698 73.78 37.7698 72.88C37.7698 72.25 38.0298 72 38.6698 72C45.1698 72 51.6598 72 58.1598 72C58.7098 72 58.9998 72.24 59.0198 72.78C59.0498 73.57 59.0498 74.36 59.0198 75.16C58.9998 75.72 58.7098 75.95 58.0598 75.95C56.4398 75.95 54.8298 75.95 53.2098 75.94C53.0798 75.94 52.9398 75.94 52.7398 75.94L52.7298 75.91Z" fill="url(#paint0_linear_9_1331)"/>
<path d="M86.96 88.2301C86.89 71.9301 76.59 57.1201 61.29 51.4701C45.99 45.8201 28.2 50.6601 17.83 63.2201C12.01 70.2601 8.83995 79.1001 8.79995 88.2301L10.3 86.7301H1.50995C0.409954 86.7301 -0.410046 88.0201 0.209954 88.9901C4.28995 95.3201 8.37995 101.65 12.46 107.98C13.04 108.89 13.63 109.79 14.21 110.7C14.84 111.67 16.17 111.66 16.8 110.7C20.97 104.36 25.14 98.0201 29.31 91.6801C29.92 90.7601 30.52 89.8401 31.13 88.9201C31.77 87.9501 30.92 86.6701 29.83 86.6601C26.92 86.6301 24 86.6001 21.09 86.5601L22.59 88.0601C22.64 79.8901 26.52 72.0001 33.18 67.1801C39.95 62.2901 48.75 60.9201 56.68 63.5901C64.61 66.2601 70.47 72.4201 72.93 80.0701C75.39 87.7201 74.03 96.8501 69.05 103.55C63.21 111.4 53.18 115.22 43.59 113.45C41.7 113.1 40.89 115.99 42.79 116.34C52.48 118.12 62.53 115.07 69.32 107.86C75.67 101.11 78.39 91.6101 76.65 82.5201C74.97 73.72 68.98 65.9501 60.89 62.0801C52.8 58.2101 42.42 58.3301 34.27 62.9101C25.24 67.9901 19.64 77.7201 19.58 88.0501C19.58 88.8701 20.27 89.5401 21.08 89.5501C23.99 89.5801 26.91 89.6101 29.82 89.6501L28.52 87.3901C24.35 93.7301 20.18 100.07 16.01 106.41C15.4 107.33 14.8 108.25 14.19 109.17H16.78C12.7 102.84 8.60995 96.5101 4.52995 90.1801C3.94995 89.2701 3.35995 88.3701 2.77995 87.4601L1.47995 89.7201H10.26C11.07 89.7201 11.76 89.0301 11.76 88.2201C11.83 73.2701 21.27 59.4401 35.39 54.3001C49.51 49.1601 65.95 53.5301 75.67 65.2101C81.03 71.6501 83.89 79.8701 83.93 88.2301C83.93 90.1601 86.94 90.1601 86.93 88.2301H86.96Z" fill="#231F20"/>
<path d="M123.16 0.020025H71.61C69.59 0.020025 67.56 -0.029975 65.54 0.020025C61.52 0.130025 57.98 2.71003 56.65 6.51003C56.13 8.01003 56.14 9.55003 56.14 11.1C56.14 20.66 56.14 30.22 56.14 39.78C56.14 40.85 56.09 41.95 56.21 43.01C56.66 47 59.65 50.45 63.61 51.31C65.53 51.73 67.62 51.55 69.57 51.55H78.98L77.68 50.81C79.57 54.74 81.47 58.68 83.36 62.61C83.85 63.63 85.43 63.54 85.95 62.61C88.13 58.68 90.32 54.74 92.5 50.81L91.2 51.55C101.82 51.55 112.44 51.71 123.06 51.55C127.77 51.48 131.91 48.15 132.61 43.41C132.87 41.68 132.73 39.85 132.73 38.11V16.89C132.73 14.51 132.75 12.12 132.73 9.74002C132.69 4.39002 128.52 0.120025 123.16 0.010025C121.23 -0.029975 121.23 2.97003 123.16 3.01003C127.03 3.09003 129.72 6.16002 129.73 9.94002C129.73 11.98 129.73 14.02 129.73 16.07V36.5C129.73 38.29 129.75 40.08 129.73 41.87C129.68 45.6 126.84 48.5 123.09 48.57C118.04 48.65 112.98 48.57 107.93 48.57H91.21C90.69 48.57 90.17 48.85 89.91 49.31C87.73 53.24 85.54 57.18 83.36 61.11H85.95C84.06 57.18 82.16 53.24 80.27 49.31C80.05 48.85 79.47 48.57 78.97 48.57H66.64C64.11 48.57 61.75 47.91 60.26 45.69C59.27 44.21 59.13 42.61 59.13 40.91C59.13 31.65 59.13 22.4 59.13 13.14C59.13 12 59.12 10.86 59.13 9.72003C59.17 6.69003 61.09 4.03003 64.06 3.25003C66.06 2.73003 68.49 3.04002 70.53 3.04002H100.02C107.6 3.04002 115.2 3.22003 122.77 3.04002C122.9 3.04002 123.02 3.04002 123.15 3.04002C125.08 3.04002 125.08 0.040025 123.15 0.040025L123.16 0.020025Z" fill="#C1D9E5"/>
<path d="M81.25 34.94L76.47 26.63H73.87V34.94H70.46V14.16H77.64C79.23 14.16 80.59 14.44 81.69 15C82.8 15.56 83.62 16.31 84.17 17.24C84.72 18.18 84.99 19.22 84.99 20.38C84.99 21.74 84.6 22.97 83.81 24.07C83.02 25.18 81.81 25.93 80.18 26.33L85.32 34.94H81.25ZM73.87 23.91H77.64C78.92 23.91 79.88 23.59 80.53 22.95C81.18 22.31 81.5 21.45 81.5 20.38C81.5 19.31 81.18 18.46 80.54 17.85C79.9 17.24 78.94 16.94 77.64 16.94H73.87V23.91Z" fill="#231F20"/>
<path d="M93.5 33.79C91.88 32.88 90.59 31.62 89.64 29.99C88.69 28.37 88.22 26.54 88.22 24.5C88.22 22.46 88.69 20.64 89.64 19.03C90.59 17.41 91.87 16.15 93.5 15.25C95.12 14.34 96.9 13.89 98.84 13.89C100.78 13.89 102.58 14.34 104.21 15.25C105.83 16.16 107.11 17.42 108.05 19.03C108.99 20.64 109.46 22.47 109.46 24.5C109.46 26.53 108.99 28.36 108.05 29.99C107.11 31.61 105.83 32.88 104.21 33.79C102.59 34.7 100.8 35.15 98.84 35.15C96.88 35.15 95.13 34.7 93.5 33.79ZM102.51 31.25C103.59 30.62 104.43 29.72 105.04 28.56C105.65 27.39 105.95 26.04 105.95 24.51C105.95 22.98 105.65 21.63 105.04 20.47C104.43 19.31 103.59 18.43 102.51 17.81C101.43 17.19 100.21 16.88 98.83 16.88C97.45 16.88 96.23 17.19 95.15 17.81C94.07 18.43 93.23 19.32 92.62 20.47C92.01 21.63 91.71 22.97 91.71 24.51C91.71 26.05 92.01 27.39 92.62 28.56C93.23 29.73 94.07 30.62 95.15 31.25C96.23 31.88 97.45 32.19 98.83 32.19C100.21 32.19 101.43 31.88 102.51 31.25Z" fill="#231F20"/>
<path d="M116.21 14.16V34.94H112.8V14.16H116.21Z" fill="#231F20"/>
</g>
<defs>
<linearGradient id="paint0_linear_9_1331" x1="37.7598" y1="88.7" x2="59.0598" y2="88.7" gradientUnits="userSpaceOnUse">
<stop stop-color="#8DCC9A"/>
<stop offset="1" stop-color="#5DC4C6"/>
</linearGradient>
<clipPath id="clip0_9_1331">
<rect width="132.77" height="116.84" fill="white"/>
</clipPath>
</defs>
</svg>
