<svg width="125" height="145" viewBox="0 0 125 145" fill="none" xmlns="http://www.w3.org/2000/svg">
<g clip-path="url(#clip0_75_2869)">
<path d="M121.94 19.94C112.81 19.19 103.8 17.18 95.2598 13.87C91.7198 12.5 88.2698 10.88 84.9298 9.06001C81.9398 7.43001 79.1798 5.47 76.2498 3.74C68.7998 -0.649996 59.5598 -1.19 51.6398 2.22C48.2598 3.68 45.3198 5.97 42.1498 7.82C38.9798 9.67 35.7798 11.28 32.4598 12.71C23.1098 16.74 13.0598 19.1 2.91982 19.94C2.31982 19.99 1.57982 20.37 1.46982 21.04C-0.930182 36.96 -0.400182 53.39 3.11982 69.1C5.88982 81.48 10.6498 93.45 17.3898 104.21C20.8298 109.7 24.7298 114.91 29.2598 119.55C33.3998 123.79 37.9398 127.64 42.6198 131.26C46.5898 134.33 50.6898 137.24 54.8798 140C57.0198 141.41 59.1798 142.89 61.4398 144.11C62.9298 144.92 64.5098 143.46 65.7598 142.68C69.1698 140.57 72.5098 138.34 75.7898 136.02C85.2598 129.32 94.5198 121.84 101.62 112.6C109.76 102.02 115.81 89.93 119.64 77.14C124.74 60.08 126.08 41.73 123.81 24.07C123.68 23.06 123.54 22.05 123.39 21.04C123.1 19.14 120.21 19.95 120.5 21.84C120.66 22.93 120.74 23.51 120.85 24.35C121.01 25.64 121.16 26.94 121.28 28.24C121.61 31.75 121.79 35.27 121.84 38.79C121.97 48.58 121.05 58.39 118.93 67.96C116.25 80.09 111.67 91.77 105.11 102.33C101.81 107.64 98.0898 112.67 93.7398 117.16C89.6898 121.33 85.2698 125.14 80.6798 128.7C76.4198 132.01 71.9898 135.12 67.4598 138.05C65.5698 139.28 63.6698 140.56 61.6798 141.64H63.1898C61.5898 140.79 60.0598 139.75 58.5298 138.78C54.7498 136.37 51.0498 133.82 47.4398 131.16C37.8798 124.1 29.0798 116.14 22.3398 106.28C9.40982 87.39 3.24982 64.69 3.01982 41.93C2.97982 37.74 3.12982 33.54 3.47982 29.37C3.60982 27.84 3.76982 26.31 3.94982 24.79C4.08982 23.63 4.15982 23.13 4.34982 21.85L2.89982 22.95C19.3098 21.6 35.0398 16.34 48.7498 7.21C55.9698 2.4 65.3198 1.57 73.1398 5.48C76.3198 7.07 79.1798 9.29 82.2798 11.04C85.3798 12.79 88.8298 14.46 92.2398 15.88C101.69 19.82 111.73 22.11 121.93 22.95C123.85 23.11 123.84 20.11 121.93 19.95L121.94 19.94Z" fill="#C1D9E5"/>
<path d="M112.72 27.36C104.99 26.72 97.3597 25.01 90.1297 22.2C87.1797 21.05 84.3097 19.7 81.5397 18.19C78.9497 16.78 76.5697 15.05 74.0197 13.58C67.7497 9.97003 59.9997 9.52003 53.3497 12.35C50.4597 13.58 47.9697 15.52 45.2697 17.1C42.5697 18.68 39.8897 20.03 37.0897 21.24C29.1997 24.66 20.7097 26.65 12.1497 27.36C11.5497 27.41 10.8097 27.79 10.6997 28.46C8.6697 41.91 9.1097 55.79 12.0597 69.08C14.4097 79.62 18.4597 89.82 24.2097 98.98C27.0897 103.57 30.3597 107.94 34.1397 111.83C37.6997 115.49 41.5997 118.79 45.6297 121.91C48.9597 124.48 52.3797 126.91 55.8897 129.22C57.7197 130.42 59.5597 131.7 61.4997 132.74C62.8697 133.47 64.2197 132.23 65.3597 131.53C68.2597 129.74 71.0897 127.85 73.8697 125.88C81.8597 120.22 89.6697 113.92 95.6797 106.12C102.55 97.2 107.67 87.02 110.93 76.25C115.31 61.74 116.47 46.13 114.53 31.1C114.42 30.22 114.3 29.34 114.16 28.47C113.87 26.57 110.98 27.38 111.27 29.27C111.54 31.03 111.74 32.65 111.93 34.72C112.2 37.65 112.35 40.59 112.39 43.53C112.5 51.78 111.72 60.05 109.94 68.12C107.7 78.29 103.87 88.06 98.3897 96.93C95.5597 101.52 92.3497 105.85 88.5897 109.72C85.1997 113.2 81.5097 116.37 77.6797 119.35C72.6297 123.27 67.2897 127.19 61.6597 130.26H63.1697C58.5097 127.76 54.0997 124.53 49.8597 121.4C41.7697 115.43 34.3397 108.69 28.6497 100.35C17.7897 84.43 12.6197 65.32 12.4397 46.16C12.4097 42.66 12.5297 39.16 12.8197 35.68C12.9297 34.37 13.0597 33.06 13.2197 31.76C13.3397 30.75 13.3897 30.42 13.5597 29.29L12.1097 30.39C26.0297 29.24 39.3397 24.79 50.9797 17.05C57.0397 13.02 64.8597 12.32 71.4197 15.63C74.1097 16.98 76.5297 18.86 79.1597 20.34C81.7897 21.82 84.7197 23.23 87.6097 24.43C95.5997 27.76 104.08 29.67 112.7 30.39C114.62 30.55 114.61 27.55 112.7 27.39L112.72 27.36Z" fill="#231F20"/>
<path d="M82.0799 51.7C81.8799 43.6 76.8799 36.46 69.2899 33.58C61.8199 30.74 52.8199 33.07 47.6899 39.22C44.7699 42.72 43.1599 46.97 43.0099 51.51C38.6799 52.27 35.3799 56.02 35.3799 60.57V88.35C35.3799 93.44 39.5099 97.57 44.5999 97.57H79.6999C84.7899 97.57 88.9199 93.44 88.9199 88.35V60.57C88.9199 56.31 86.0099 52.76 82.0799 51.7ZM62.5399 38.07C69.9799 38.07 75.9599 44.04 76.3499 51.35H48.7299C49.1199 44.06 55.0999 38.06 62.5399 38.07ZM64.5799 87.38V91.03C64.5799 92.17 63.6499 93.01 62.5499 93.06C61.4499 93.11 60.5199 92.09 60.5199 91.03V87.38C56.6899 86.46 53.8499 83.03 53.8499 78.92C53.8499 74.11 57.7499 70.22 62.5499 70.22C67.3499 70.22 71.2499 74.12 71.2499 78.92C71.2499 83.03 68.3999 86.46 64.5799 87.38Z" fill="url(#paint0_linear_75_2869)"/>
</g>
<defs>
<linearGradient id="paint0_linear_75_2869" x1="35.3799" y1="64.97" x2="88.9199" y2="64.97" gradientUnits="userSpaceOnUse">
<stop stop-color="#8DCC9A"/>
<stop offset="1" stop-color="#5DC4C6"/>
</linearGradient>
<clipPath id="clip0_75_2869">
<rect width="124.88" height="144.33" fill="white"/>
</clipPath>
</defs>
</svg>
