<svg width="144" height="135" viewBox="0 0 144 135" fill="none" xmlns="http://www.w3.org/2000/svg">
<g clip-path="url(#clip0_9_1365)">
<path d="M42.9301 134.89H12.6201C9.86012 134.89 7.62012 132.65 7.62012 129.89V107.81C7.62012 106.46 8.17012 105.16 9.14012 104.22L23.9501 89.9C25.8601 88.05 28.8801 88.02 30.8201 89.83L46.3201 104.21C47.3401 105.16 47.9201 106.48 47.9201 107.87V129.89C47.9201 132.65 45.6801 134.89 42.9201 134.89H42.9301Z" fill="#C5D8E3"/>
<path d="M90.4999 134.89H60.1899C57.4299 134.89 55.1899 132.65 55.1899 129.89V86.81C55.1899 85.46 55.7399 84.16 56.7099 83.22L71.5199 68.9C73.4299 67.05 76.4499 67.02 78.3899 68.83L93.8899 83.21C94.9099 84.16 95.4899 85.48 95.4899 86.87V129.89C95.4899 132.65 93.2499 134.89 90.4899 134.89H90.4999Z" fill="#C5D8E3"/>
<path d="M138.06 134.89H107.75C104.99 134.89 102.75 132.65 102.75 129.89V77.81C102.75 76.46 103.3 75.16 104.27 74.22L119.08 59.9C120.99 58.05 124.01 58.02 125.95 59.83L141.45 74.21C142.47 75.16 143.05 76.48 143.05 77.87V129.89C143.05 132.65 140.81 134.89 138.05 134.89H138.06Z" fill="url(#paint0_linear_9_1365)"/>
<path d="M134.81 41.61C134.75 46.6 131.65 51.2 126.9 52.89C122.15 54.58 116.67 53.09 113.46 49.13C110.25 45.17 109.98 39.63 112.57 35.37C115.16 31.11 120.27 28.84 125.14 29.84C130.75 30.99 134.74 35.91 134.81 41.61C134.83 43.54 137.83 43.54 137.81 41.61C137.73 35.35 133.88 29.77 128.01 27.55C122.14 25.33 115.29 27.18 111.35 31.97C107.41 36.76 106.67 43.91 109.99 49.37C113.31 54.83 119.62 57.49 125.78 56.31C132.76 54.97 137.73 48.63 137.82 41.61C137.84 39.68 134.84 39.68 134.82 41.61H134.81Z" fill="#221F20"/>
<path d="M2.58006 95.25C9.09006 89.08 15.6101 82.91 22.1201 76.74C32.3901 67.01 42.6601 57.28 52.9301 47.56C55.2101 45.4 57.4701 43.21 59.7801 41.07C62.9301 38.16 67.8201 37.78 71.2201 40.53C74.1601 42.91 76.2201 45.99 80.0801 47.05C84.1701 48.18 88.4401 46.93 91.4701 44.03C92.4401 43.1 93.4101 42.15 94.3801 41.21C98.8301 36.9 103.28 32.58 107.72 28.27L133.74 3.03998L134.25 2.54998C135.64 1.19998 133.52 -0.920021 132.13 0.42998C124.59 7.73998 117.05 15.06 109.51 22.37L94.7801 36.65L90.3201 40.97C88.9101 42.34 87.5401 43.59 85.5701 44.15C83.0101 44.88 80.2001 44.38 78.0501 42.8C76.7801 41.87 75.6801 40.62 74.5501 39.54C70.9701 36.12 66.1501 34.57 61.3901 36.53C58.2501 37.82 55.7301 40.79 53.3001 43.09C43.4901 52.38 33.6801 61.67 23.8701 70.97C16.1901 78.24 8.52006 85.51 0.840061 92.78L0.450061 93.15C-0.949939 94.48 1.17006 96.6 2.57006 95.27L2.58006 95.25Z" fill="#221F20"/>
<path d="M117.61 3.14996H133.46L131.96 1.64996V16.75C131.96 18.68 134.96 18.68 134.96 16.75V1.64996C134.96 0.839963 134.27 0.149963 133.46 0.149963H117.61C115.68 0.149963 115.68 3.14996 117.61 3.14996Z" fill="#221F20"/>
<path d="M124.59 35.88C124.95 36.36 125.18 36.87 125.3 37.43C125.33 37.56 125.43 37.51 125.5 37.51C126.04 37.51 126.58 37.51 127.12 37.51C127.52 37.51 127.63 37.62 127.63 38.03C127.63 38.35 127.63 38.67 127.63 38.99C127.63 39.29 127.51 39.41 127.2 39.41C126.65 39.41 126.1 39.41 125.56 39.41C125.41 39.41 125.35 39.44 125.32 39.59C124.94 41.44 123.76 42.53 122 43.07C121.6 43.19 121.19 43.26 120.76 43.34C121.09 43.7 121.41 44.04 121.72 44.39C122.8 45.61 123.86 46.85 124.88 48.12C125.23 48.56 125.59 48.99 125.95 49.42C126.05 49.54 126.09 49.67 126.02 49.82C125.95 49.97 125.83 50.04 125.66 50.04C124.95 50.04 124.23 50.04 123.52 50.04C123.32 50.04 123.21 49.93 123.1 49.81C122.68 49.31 122.27 48.8 121.85 48.31C121.16 47.5 120.46 46.69 119.76 45.88C119.05 45.06 118.32 44.25 117.58 43.46C117.46 43.34 117.41 43.21 117.41 43.03C117.42 42.61 117.41 42.19 117.41 41.78C117.41 41.47 117.54 41.34 117.85 41.33C118.53 41.33 119.22 41.37 119.9 41.28C120.74 41.18 121.53 40.97 122.14 40.32C122.35 40.1 122.47 39.84 122.59 39.57C122.64 39.45 122.61 39.41 122.48 39.41C122.06 39.41 121.64 39.41 121.23 39.41C120.13 39.41 119.02 39.41 117.92 39.41C117.51 39.41 117.42 39.31 117.42 38.9C117.42 38.58 117.42 38.26 117.42 37.94C117.42 37.66 117.54 37.54 117.81 37.52C117.92 37.52 118.02 37.52 118.13 37.52C119.49 37.52 120.85 37.52 122.21 37.52C122.28 37.52 122.39 37.56 122.42 37.49C122.46 37.41 122.37 37.34 122.32 37.28C121.93 36.74 121.36 36.5 120.73 36.37C119.8 36.18 118.86 36.25 117.92 36.24C117.51 36.24 117.42 36.14 117.42 35.73C117.42 35.3 117.42 34.86 117.42 34.43C117.42 34.13 117.54 34.01 117.85 34.01C120.97 34.01 124.09 34.01 127.2 34.01C127.46 34.01 127.6 34.12 127.61 34.39C127.62 34.77 127.62 35.15 127.61 35.53C127.61 35.8 127.46 35.91 127.15 35.91C126.37 35.91 125.6 35.91 124.82 35.91C124.76 35.91 124.69 35.91 124.59 35.91V35.88Z" fill="url(#paint1_linear_9_1365)"/>
</g>
<defs>
<linearGradient id="paint0_linear_9_1365" x1="102.76" y1="96.69" x2="143.06" y2="96.69" gradientUnits="userSpaceOnUse">
<stop stop-color="#9BCB9E"/>
<stop offset="1" stop-color="#78C1C4"/>
</linearGradient>
<linearGradient id="paint1_linear_9_1365" x1="117.4" y1="42.02" x2="127.63" y2="42.02" gradientUnits="userSpaceOnUse">
<stop stop-color="#9BCB9E"/>
<stop offset="1" stop-color="#78C1C4"/>
</linearGradient>
<clipPath id="clip0_9_1365">
<rect width="143.06" height="134.89" fill="white"/>
</clipPath>
</defs>
</svg>
