<svg width="175" height="175" viewBox="0 0 175 175" fill="none" xmlns="http://www.w3.org/2000/svg">
<rect x="0.795455" y="0.795455" width="173.409" height="173.409" rx="86.7045" fill="#85D499"/>
<rect x="0.795455" y="0.795455" width="173.409" height="173.409" rx="86.7045" stroke="#262626" stroke-width="1.59091"/>
<rect x="48.5225" y="48.523" width="77.9545" height="77.9545" rx="38.9773" fill="#1A1A1A" stroke="#262626" stroke-width="1.59091"/>
<path d="M76.875 97.625L98.125 76.375M98.125 76.375L82.1875 76.375M98.125 76.375V92.3125" stroke="black" stroke-width="2" stroke-linecap="round" stroke-linejoin="round"/>
<path d="M102.745 140.628L87.8821 142.711L89.9646 157.573L104.827 155.491L102.745 140.628Z" fill="black"/>
<path d="M83.5541 145.605L81.9771 155.992L78.5422 155.47C77.8251 155.361 77.1731 155.123 76.5863 154.756C75.9987 154.393 75.5039 153.936 75.102 153.384C74.6993 152.838 74.4121 152.23 74.2404 151.561C74.063 150.897 74.0287 150.206 74.1376 149.489C74.2465 148.771 74.4846 148.119 74.852 147.533C75.2137 146.95 75.6684 146.455 76.216 146.047C76.7629 145.645 77.3711 145.355 78.0405 145.178C78.7092 145.006 79.4021 144.975 80.1192 145.084L83.5541 145.605ZM81.7767 146.914L79.8849 146.627C79.3805 146.55 78.8963 146.573 78.4326 146.695C77.9638 146.816 77.5358 147.019 77.1484 147.305C76.7561 147.589 76.4325 147.937 76.1777 148.349C75.923 148.76 75.7573 149.218 75.6807 149.723C75.6041 150.227 75.6263 150.714 75.7475 151.183C75.8686 151.651 76.0742 152.08 76.3644 152.468C76.6497 152.855 76.9981 153.176 77.4098 153.431C77.8165 153.685 78.272 153.851 78.7765 153.927L80.6683 154.214L81.7767 146.914Z" fill="black"/>
<path d="M66.6085 149.57L65.1379 149.047L67.6516 141.977L69.1222 142.499L66.6085 149.57ZM65.4945 150.328C65.7208 150.409 65.8834 150.549 65.9822 150.749C66.0811 150.948 66.0912 151.159 66.0124 151.381C65.9353 151.597 65.7954 151.752 65.5926 151.845C65.3882 151.942 65.1752 151.951 64.9536 151.872C64.7368 151.795 64.5798 151.654 64.4826 151.45C64.3837 151.25 64.3728 151.042 64.4499 150.825C64.5287 150.604 64.6694 150.447 64.8722 150.354C65.0703 150.26 65.2777 150.251 65.4945 150.328Z" fill="black"/>
<path d="M60.427 138.547C60.7624 138.757 61.0628 139.011 61.3281 139.309C61.5935 139.607 61.7966 139.925 61.9375 140.263C62.0716 140.603 62.125 140.945 62.0978 141.289L60.6585 141.157C60.6657 141.007 60.63 140.837 60.5513 140.646C60.4683 140.453 60.3503 140.267 60.1974 140.087C60.0421 139.912 59.8589 139.767 59.6479 139.652C59.4412 139.54 59.2344 139.465 59.0275 139.427C58.8139 139.39 58.6165 139.403 58.4353 139.464C58.2542 139.525 58.1171 139.641 58.0241 139.813C57.9191 140.006 57.9039 140.191 57.9786 140.369C58.0465 140.548 58.1616 140.718 58.3241 140.88C58.4865 141.043 58.6502 141.203 58.815 141.36C59.1934 141.691 59.5176 142.037 59.7874 142.4C60.0506 142.765 60.2161 143.136 60.284 143.515C60.3495 143.898 60.2773 144.282 60.0673 144.669C59.8383 145.091 59.5259 145.394 59.1303 145.578C58.7323 145.766 58.3032 145.844 57.8432 145.81C57.3788 145.775 56.9356 145.642 56.5135 145.413C55.9858 145.127 55.563 144.752 55.245 144.289C54.927 143.827 54.7576 143.336 54.7369 142.819L56.1759 142.763C56.1702 142.93 56.2048 143.103 56.2794 143.28C56.3541 143.457 56.4582 143.622 56.5919 143.774C56.7232 143.93 56.8766 144.062 57.0521 144.169C57.2716 144.299 57.4947 144.386 57.7216 144.43C57.9417 144.475 58.1435 144.465 58.327 144.399C58.5105 144.334 58.656 144.202 58.7633 144.004C58.8683 143.811 58.8789 143.629 58.795 143.458C58.7088 143.292 58.5779 143.124 58.4023 142.955C58.2222 142.783 58.0414 142.602 57.8597 142.413C57.5352 142.077 57.2503 141.726 57.0052 141.36C56.7577 140.998 56.5988 140.63 56.5285 140.256C56.4582 139.882 56.5288 139.511 56.7404 139.142C56.9647 138.729 57.2868 138.434 57.7068 138.258C58.1225 138.079 58.5723 138.016 59.0563 138.068C59.5403 138.12 59.9972 138.279 60.427 138.547Z" fill="black"/>
<path d="M48.1248 132.762L47.5384 131.286C48.104 131.139 48.6798 131.124 49.2658 131.241C49.848 131.356 50.3735 131.608 50.8422 131.999C51.3723 132.441 51.7426 132.981 51.9531 133.619C52.1598 134.254 52.2031 134.909 52.083 135.584C51.9559 136.26 51.6601 136.876 51.1955 137.433C50.8431 137.856 50.4397 138.187 49.9855 138.427C49.5281 138.671 49.0534 138.822 48.5615 138.881C48.0625 138.94 47.5725 138.903 47.0916 138.769C46.6106 138.635 46.1723 138.403 45.7766 138.073C45.3079 137.682 44.9651 137.21 44.7481 136.658C44.5274 136.103 44.4402 135.532 44.4865 134.945L46.0438 135.257C46.0449 135.584 46.1114 135.887 46.2433 136.166C46.3719 136.449 46.5496 136.685 46.7762 136.874C47.0913 137.137 47.4496 137.289 47.8511 137.331C48.2457 137.373 48.6348 137.317 49.0185 137.161C49.3952 137.007 49.7213 136.764 49.9969 136.434C50.2692 136.107 50.4474 135.741 50.5315 135.336C50.6123 134.934 50.5965 134.543 50.4839 134.162C50.3675 133.779 50.1537 133.457 49.8425 133.198C49.6043 132.999 49.3328 132.864 49.0279 132.792C48.7231 132.72 48.422 132.71 48.1248 132.762Z" fill="black"/>
<path d="M42.3655 123.244C42.7868 123.791 43.0308 124.398 43.0976 125.067C43.1612 125.732 43.0611 126.38 42.7971 127.013C42.5261 127.645 42.1034 128.182 41.5288 128.625C41.0929 128.961 40.6271 129.196 40.1316 129.332C39.6321 129.471 39.1359 129.515 38.643 129.465C38.143 129.415 37.6729 129.272 37.2326 129.036C36.7923 128.801 36.4149 128.479 36.1004 128.071C35.679 127.524 35.4365 126.918 35.3729 126.254C35.3062 125.585 35.4083 124.935 35.6793 124.303C35.9472 123.667 36.3704 123.127 36.949 122.681C37.3809 122.348 37.8447 122.114 38.3402 121.978C38.8357 121.843 39.3335 121.8 39.8334 121.851C40.3264 121.901 40.793 122.043 41.2333 122.279C41.6705 122.51 42.0479 122.832 42.3655 123.244ZM41.1291 124.197C40.8757 123.868 40.561 123.64 40.1852 123.512C39.8093 123.385 39.4207 123.356 39.0194 123.425C38.611 123.494 38.2384 123.658 37.9016 123.917C37.5568 124.183 37.3009 124.506 37.1337 124.888C36.9635 125.265 36.894 125.65 36.9251 126.043C36.9522 126.439 37.0894 126.797 37.3368 127.118C37.5871 127.443 37.9018 127.671 38.2807 127.803C38.6566 127.93 39.0487 127.959 39.457 127.891C39.8623 127.819 40.2354 127.651 40.5762 127.389C40.9289 127.117 41.1868 126.792 41.35 126.413C41.5132 126.035 41.5792 125.65 41.5481 125.257C41.51 124.863 41.3703 124.51 41.1291 124.197Z" fill="black"/>
<path d="M34.969 111.332L35.8175 113.147L30.166 118.812L29.4606 117.303L33.7634 113.006L27.7033 113.544L27.001 112.042L34.969 111.332Z" fill="black"/>
<path d="M31.6064 100.621C31.7557 101.295 31.7187 101.949 31.4954 102.582C31.2709 103.211 30.9049 103.756 30.3973 104.217C29.8837 104.674 29.2728 104.981 28.5647 105.138C28.0274 105.257 27.5057 105.273 26.9995 105.185C26.4884 105.099 26.0203 104.928 25.595 104.674C25.1638 104.416 24.7988 104.087 24.5001 103.687C24.2013 103.287 23.9962 102.835 23.8847 102.332C23.7602 101.771 23.7633 101.229 23.8938 100.708C24.0194 100.189 24.2506 99.7174 24.5872 99.2943C24.919 98.8724 25.3338 98.5243 25.8315 98.25C26.3243 97.9768 26.8757 97.8059 27.4856 97.7374L28.7374 103.386C29.0603 103.248 29.3385 103.058 29.572 102.817C29.7995 102.571 29.96 102.29 30.0535 101.972C30.1459 101.649 30.1556 101.311 30.0826 100.959C30.0003 100.587 29.8328 100.271 29.5801 100.009C29.3263 99.7428 29.0142 99.5481 28.6436 99.4253L28.6601 97.7999C29.3746 97.949 30.0049 98.273 30.551 98.772C31.0922 99.272 31.444 99.8884 31.6064 100.621ZM27.5839 103.695L26.6617 99.534C26.3209 99.6608 26.031 99.8557 25.7922 100.119C25.5473 100.378 25.3748 100.675 25.2748 101.01C25.1688 101.341 25.1548 101.682 25.2327 102.033C25.3096 102.38 25.464 102.684 25.6961 102.945C25.9271 103.202 26.2083 103.395 26.5398 103.527C26.8653 103.655 27.2133 103.711 27.5839 103.695Z" fill="black"/>
<path d="M30.0171 90.9627L22.5149 91.1136L22.4835 89.5531L23.2787 89.5371C22.9634 89.2833 22.7119 88.9681 22.5242 88.5916C22.3365 88.2151 22.2382 87.8068 22.2293 87.3667C22.2237 87.0866 22.2556 86.8083 22.3251 86.5317L23.9131 87.1227C23.842 87.3192 23.8084 87.5151 23.8124 87.7101C23.819 88.0402 23.9076 88.3411 24.0782 88.6129C24.2438 88.8848 24.4658 89.1005 24.7442 89.26C25.0226 89.4195 25.3293 89.4959 25.6644 89.4891L29.9858 89.4022L30.0171 90.9627Z" fill="black"/>
<path d="M23.8124 63.6729L24.4017 61.9315L28.7106 67.1765L33.2027 68.6969L32.7023 70.1753L28.2102 68.6549L21.604 70.1978L22.1934 68.4564L26.8469 67.3697L23.8124 63.6729Z" fill="black"/>
<path d="M38.7446 57.5263C38.3781 58.1113 37.8929 58.5511 37.2892 58.8458C36.6881 59.1363 36.045 59.2676 35.3599 59.2399C34.6732 59.2052 34.0226 58.9953 33.4079 58.6102C32.9416 58.318 32.5588 57.9631 32.2597 57.5455C31.9563 57.1252 31.7423 56.6753 31.6177 56.1958C31.4915 55.7094 31.4623 55.2188 31.5302 54.7242C31.5981 54.2295 31.7688 53.7639 32.0423 53.3272C32.4089 52.7422 32.8927 52.3045 33.4938 52.014C34.0976 51.7193 34.7428 51.5893 35.4294 51.624C36.1187 51.6544 36.7729 51.8635 37.3918 52.2513C37.8539 52.5408 38.2345 52.8943 38.5336 53.312C38.8328 53.7296 39.0455 54.1817 39.1717 54.668C39.2963 55.1475 39.3247 55.6346 39.2568 56.1293C39.1916 56.6197 39.0208 57.0854 38.7446 57.5263ZM37.422 56.6976C37.6424 56.3457 37.747 55.9715 37.7358 55.5748C37.7245 55.1782 37.6168 54.8037 37.4125 54.4514C37.2066 54.0922 36.9235 53.7997 36.5631 53.5739C36.1943 53.3429 35.8021 53.2152 35.3864 53.1909C34.9733 53.1623 34.588 53.2308 34.2304 53.3964C33.8686 53.5593 33.5801 53.8125 33.365 54.1559C33.1472 54.5035 33.0426 54.8777 33.0512 55.2786C33.0624 55.6753 33.171 56.0532 33.3769 56.4124C33.5854 56.7674 33.872 57.0591 34.2365 57.2875C34.6138 57.5239 35.0082 57.6529 35.4197 57.6746C35.8311 57.6962 36.2157 57.6243 36.5732 57.4587C36.9292 57.2862 37.2121 57.0325 37.422 56.6976Z" fill="black"/>
<path d="M42.1172 47.7452L38.7794 44.4507L39.8759 43.3398L42.9413 46.3656C43.1798 46.601 43.455 46.7566 43.7668 46.8324C44.0786 46.9082 44.3899 46.9062 44.7006 46.8263C45.0078 46.743 45.2774 46.5838 45.5093 46.3488C45.7448 46.1103 45.9004 45.8386 45.9763 45.5339C46.0521 45.2222 46.0483 44.9127 45.9649 44.6054C45.8851 44.2947 45.7259 44.0216 45.4873 43.7861L42.4219 40.7604L43.5183 39.6496L48.8641 44.9155L47.7676 46.0263L47.1856 45.4624C47.2271 45.8618 47.1784 46.2601 47.0395 46.6572C46.9006 47.0543 46.6783 47.4077 46.3726 47.7175C45.9825 48.1127 45.5314 48.3774 45.0194 48.5116C44.5073 48.6458 43.9944 48.6492 43.4807 48.5216C42.9669 48.3941 42.5124 48.1353 42.1172 47.7452Z" fill="black"/>
<path d="M53.4147 41.2543L49.1715 35.0654L50.4588 34.1829L50.9085 34.8389C50.9477 34.436 51.0732 34.0528 51.2849 33.6892C51.4966 33.3257 51.784 33.0195 52.1471 32.7705C52.3782 32.6121 52.6284 32.4861 52.8977 32.3924L53.2751 34.0442C53.0718 34.0927 52.8896 34.172 52.7287 34.2824C52.4564 34.4691 52.2535 34.7083 52.1199 35C51.9835 35.2876 51.925 35.5916 51.9444 35.9119C51.9639 36.2321 52.0684 36.5305 52.2579 36.8069L54.702 40.3717L53.4147 41.2543Z" fill="black"/>
<path d="M69.2223 32.8529L66.649 22.6676L70.0174 21.8166C70.7207 21.6389 71.414 21.6056 72.0974 21.7168C72.7795 21.823 73.4128 22.0526 73.9973 22.4054C74.5805 22.7534 75.0809 23.2023 75.4984 23.7521C75.9196 24.2958 76.219 24.9193 76.3967 25.6226C76.5744 26.3258 76.6077 27.0191 76.4965 27.7025C76.389 28.3798 76.1619 29.0125 75.8152 29.6006C75.4672 30.1838 75.0189 30.6867 74.4703 31.109C73.9205 31.5266 73.294 31.8242 72.5907 32.0019L69.2223 32.8529ZM70.3532 30.9573L72.2084 30.4886C72.7031 30.3636 73.1406 30.1551 73.5209 29.8629C73.906 29.5696 74.2217 29.2163 74.4682 28.8032C74.7196 28.3888 74.8828 27.9425 74.9581 27.4643C75.0333 26.9861 75.0085 26.4996 74.8835 26.0049C74.7585 25.5102 74.5493 25.0703 74.2559 24.6852C73.9626 24.3001 73.6069 23.9849 73.1889 23.7396C72.7758 23.4932 72.3301 23.3323 71.8519 23.2571C71.3785 23.1806 70.8944 23.2048 70.3997 23.3298L68.5446 23.7985L70.3532 30.9573Z" fill="black"/>
<path d="M83.7033 30.0922L83.4381 22.5931L84.9979 22.538L85.026 23.3329C85.275 23.0137 85.5863 22.7574 85.9599 22.564C86.3335 22.3706 86.7403 22.2661 87.1802 22.2505C87.4602 22.2406 87.739 22.2683 88.0166 22.3336L87.4499 23.9304C87.2523 23.8623 87.056 23.8317 86.861 23.8386C86.531 23.8503 86.2315 23.9435 85.9623 24.1182C85.693 24.2879 85.4807 24.5131 85.3255 24.7939C85.1702 25.0747 85.0985 25.3826 85.1104 25.7176L85.2631 30.0371L83.7033 30.0922Z" fill="black"/>
<path d="M96.7107 30.8776C96.0294 30.7658 95.4362 30.4885 94.9309 30.0457C94.4306 29.6037 94.0608 29.0614 93.8215 28.4189C93.5879 27.7723 93.5299 27.091 93.6473 26.3752C93.7364 25.8322 93.9157 25.342 94.1852 24.9046C94.4555 24.4623 94.7876 24.091 95.1816 23.7906C95.5813 23.4861 96.0224 23.2696 96.5049 23.1409C96.9873 23.0122 97.4827 22.9895 97.9912 23.073C98.5589 23.1661 99.0603 23.37 99.4953 23.6848C99.9311 23.9945 100.283 24.3843 100.551 24.854C100.819 25.3188 100.988 25.8332 101.058 26.3972C101.128 26.9563 101.082 27.5317 100.919 28.1234L95.2099 27.1867C95.2182 27.5379 95.291 27.8666 95.4283 28.1731C95.5713 28.4753 95.773 28.729 96.0334 28.9339C96.2988 29.1397 96.6087 29.2742 96.9634 29.3374C97.3385 29.399 97.6945 29.3611 98.0314 29.2237C98.3732 29.0871 98.6699 28.8697 98.9217 28.5713L100.425 29.1905C100.021 29.7985 99.4856 30.2633 98.8194 30.5849C98.1541 30.9015 97.4511 30.9991 96.7107 30.8776ZM95.3512 26.0008L99.5572 26.6909C99.5661 26.3274 99.4929 25.9859 99.3375 25.6663C99.1878 25.3427 98.9762 25.0722 98.7026 24.855C98.4347 24.6336 98.1231 24.4938 97.7677 24.4355C97.4172 24.3779 97.0776 24.4084 96.7489 24.5268C96.4252 24.6461 96.1407 24.8351 95.8954 25.094C95.6559 25.3487 95.4745 25.651 95.3512 26.0008Z" fill="black"/>
<path d="M114.514 28.1735L115.958 28.7653L113.113 35.7088L111.662 35.1142L112.019 34.0846C111.669 34.3576 111.276 34.5317 110.84 34.607C110.403 34.6823 109.949 34.6232 109.477 34.4298C108.968 34.2211 108.528 33.9299 108.156 33.5561C107.787 33.1777 107.501 32.7471 107.299 32.2642C107.101 31.7832 106.999 31.2816 106.991 30.7594C106.985 30.2326 107.088 29.7123 107.298 29.1985C107.501 28.7032 107.784 28.2759 108.148 27.9167C108.513 27.5528 108.928 27.2739 109.391 27.0799C109.854 26.8859 110.339 26.7845 110.845 26.7757C111.358 26.7643 111.862 26.86 112.358 27.0629C112.862 27.2697 113.259 27.5675 113.549 27.9564C113.845 28.3425 114.047 28.766 114.155 29.2267L114.514 28.1735ZM110.014 33.0199C110.421 33.1868 110.819 33.2333 111.206 33.1595C111.595 33.081 111.943 32.9046 112.25 32.6303C112.561 32.358 112.803 32.0135 112.973 31.5969C113.146 31.1756 113.217 30.7587 113.186 30.3459C113.155 29.9332 113.027 29.5647 112.803 29.2405C112.586 28.9135 112.274 28.6666 111.866 28.4997C111.464 28.3347 111.054 28.2857 110.637 28.3528C110.22 28.4199 109.845 28.5849 109.51 28.8478C109.175 29.1107 108.922 29.4504 108.752 29.867C108.579 30.2883 108.522 30.7109 108.581 31.135C108.646 31.5564 108.801 31.9363 109.046 32.2746C109.298 32.6102 109.621 32.8587 110.014 33.0199Z" fill="black"/>
<path d="M118.173 38.2956L122.717 32.3242L123.959 33.2694L123.477 33.9024C123.872 33.8131 124.274 33.8104 124.681 33.8943C125.093 33.9812 125.474 34.158 125.824 34.4246C126.25 34.7487 126.563 35.1506 126.764 35.6303C126.968 36.106 127.047 36.5933 127 37.0922C127.469 36.9144 127.955 36.8573 128.46 36.9209C128.972 36.9835 129.441 37.1769 129.867 37.501C130.309 37.8373 130.629 38.2507 130.827 38.7414C131.026 39.232 131.095 39.7403 131.034 40.2662C130.974 40.792 130.775 41.2759 130.439 41.7178L127.59 45.4618L126.348 44.5166L128.956 41.089C129.156 40.8263 129.276 40.537 129.315 40.2211C129.354 39.9052 129.318 39.5978 129.206 39.2988C129.094 38.9999 128.906 38.7505 128.644 38.5505C128.381 38.3506 128.094 38.2325 127.782 38.1963C127.47 38.1601 127.167 38.203 126.873 38.325C126.579 38.447 126.326 38.6473 126.114 38.926L123.505 42.3536L122.263 41.4084L124.872 37.9808C125.084 37.7021 125.209 37.4049 125.249 37.089C125.288 36.7731 125.246 36.4681 125.124 36.1741C125.006 35.8831 124.816 35.6377 124.553 35.4377C124.295 35.2408 124.004 35.1267 123.682 35.0954C123.364 35.0672 123.058 35.1141 122.764 35.2361C122.47 35.3581 122.223 35.5505 122.023 35.8132L119.415 39.2408L118.173 38.2956Z" fill="black"/>
<path d="M136.16 56.0188L145.254 50.7595L147.064 53.8905C147.347 54.3798 147.482 54.8916 147.467 55.426C147.455 55.9646 147.311 56.4698 147.035 56.9416C146.761 57.4177 146.375 57.7997 145.877 58.0878C145.371 58.3808 144.841 58.525 144.29 58.5204C143.745 58.5176 143.236 58.3872 142.763 58.129C142.29 57.8709 141.916 57.5036 141.641 57.0273L140.611 55.2474L136.941 57.37L136.16 56.0188ZM141.962 54.4661L142.913 56.1095C143.063 56.3693 143.264 56.5677 143.517 56.7048C143.772 56.8462 144.044 56.9171 144.334 56.9174C144.625 56.9221 144.907 56.8456 145.18 56.6878C145.453 56.53 145.66 56.3236 145.802 56.0684C145.95 55.8151 146.024 55.5439 146.024 55.2547C146.032 54.9674 145.96 54.6938 145.81 54.434L144.859 52.7906L141.962 54.4661Z" fill="black"/>
<path d="M141.717 66.9601L148.808 64.5043L149.318 65.9791L148.567 66.2394C148.945 66.3837 149.281 66.606 149.576 66.9064C149.871 67.2067 150.09 67.5648 150.234 67.9808C150.326 68.2455 150.381 68.5201 150.4 68.8047L148.707 68.7319C148.715 68.523 148.686 68.3263 148.622 68.142C148.514 67.83 148.337 67.571 148.091 67.3651C147.85 67.1575 147.572 67.0207 147.258 66.9548C146.944 66.8888 146.629 66.9107 146.312 67.0204L142.228 68.435L141.717 66.9601Z" fill="black"/>
<path d="M144.786 79.6253C144.693 78.9413 144.784 78.2928 145.059 77.6797C145.334 77.0717 145.744 76.5589 146.288 76.1415C146.837 75.7283 147.472 75.4728 148.19 75.3748C148.735 75.3005 149.257 75.3279 149.754 75.4571C150.256 75.5855 150.709 75.794 151.111 76.0824C151.52 76.3751 151.856 76.7331 152.121 77.1565C152.386 77.5799 152.553 78.0468 152.623 78.5574C152.716 79.2414 152.625 79.8874 152.349 80.4955C152.074 81.1085 151.662 81.6216 151.112 82.0348C150.563 82.4529 149.927 82.7113 149.203 82.8099C148.663 82.8835 148.144 82.8558 147.647 82.7266C147.15 82.5975 146.697 82.3866 146.289 82.0939C145.886 81.8054 145.552 81.4495 145.287 81.0262C145.023 80.6078 144.856 80.1408 144.786 79.6253ZM146.333 79.4146C146.389 79.826 146.548 80.1804 146.811 80.4778C147.073 80.7752 147.396 80.9938 147.778 81.1335C148.167 81.2775 148.571 81.3208 148.993 81.2634C149.424 81.2046 149.807 81.0515 150.142 80.8039C150.477 80.5613 150.729 80.2619 150.898 79.9057C151.071 79.5488 151.131 79.1696 151.076 78.7681C151.021 78.3617 150.861 78.0073 150.598 77.7049C150.335 77.4075 150.01 77.1867 149.622 77.0427C149.234 76.9037 148.827 76.8632 148.401 76.9213C147.96 76.9814 147.574 77.1349 147.244 77.3818C146.915 77.6288 146.665 77.9303 146.497 78.2865C146.334 78.647 146.279 79.023 146.333 79.4146Z" fill="black"/>
<path d="M141.779 90.5696L141.921 89.0153L153.13 90.0361L152.989 91.5904L151.89 91.4904C152.251 91.7744 152.533 92.1216 152.737 92.532C152.941 92.9424 153.019 93.4116 152.97 93.9397C152.921 94.4827 152.773 94.9816 152.525 95.4362C152.277 95.8959 151.955 96.2885 151.559 96.6141C151.168 96.9401 150.726 97.1837 150.234 97.3449C149.742 97.506 149.225 97.5619 148.682 97.5124C148.139 97.463 147.637 97.3144 147.178 97.0665C146.718 96.8187 146.323 96.4989 145.992 96.1071C145.666 95.7157 145.422 95.2716 145.262 94.7747C145.1 94.2829 145.045 93.7654 145.094 93.2224C145.142 92.6943 145.303 92.2468 145.578 91.88C145.857 91.5137 146.198 91.2232 146.599 91.0086L141.779 90.5696ZM151.47 93.7879C151.509 93.3545 151.434 92.9634 151.245 92.6146C151.056 92.2659 150.785 91.9825 150.433 91.7646C150.087 91.5472 149.689 91.418 149.24 91.3772C148.792 91.3364 148.375 91.3913 147.99 91.5421C147.604 91.6928 147.287 91.9226 147.038 92.2315C146.789 92.5403 146.644 92.9115 146.605 93.3449C146.566 93.7733 146.637 94.1767 146.819 94.5549C147.005 94.9335 147.273 95.2468 147.622 95.4946C147.971 95.7424 148.373 95.8869 148.826 95.9282C149.269 95.9686 149.685 95.8984 150.073 95.7178C150.461 95.5421 150.781 95.2849 151.033 94.9462C151.285 94.6074 151.43 94.2214 151.47 93.7879Z" fill="black"/>
<path d="M142.613 105.379C142.829 104.723 143.194 104.18 143.709 103.749C144.223 103.322 144.816 103.04 145.487 102.903C146.162 102.771 146.844 102.819 147.534 103.045C148.056 103.217 148.513 103.469 148.904 103.803C149.299 104.138 149.615 104.523 149.851 104.959C150.091 105.4 150.237 105.87 150.29 106.366C150.343 106.863 150.289 107.356 150.128 107.845C149.949 108.392 149.67 108.856 149.292 109.237C148.919 109.62 148.48 109.908 147.975 110.1C147.474 110.294 146.94 110.382 146.372 110.364C145.808 110.347 145.247 110.213 144.687 109.961L146.491 104.464C146.143 104.418 145.807 104.44 145.483 104.528C145.162 104.623 144.881 104.783 144.638 105.009C144.394 105.24 144.214 105.525 144.096 105.866C143.978 106.227 143.961 106.585 144.045 106.939C144.127 107.297 144.296 107.624 144.552 107.919L143.709 109.308C143.171 108.816 142.794 108.216 142.578 107.508C142.368 106.802 142.379 106.092 142.613 105.379ZM147.641 104.786L146.312 108.836C146.67 108.901 147.019 108.881 147.359 108.776C147.701 108.678 148.001 108.511 148.258 108.274C148.518 108.043 148.704 107.757 148.816 107.415C148.927 107.077 148.949 106.737 148.883 106.394C148.815 106.056 148.672 105.746 148.454 105.463C148.239 105.188 147.968 104.962 147.641 104.786Z" fill="black"/>
<path d="M139.056 114.499L145.586 118.195L144.817 119.553L144.125 119.161C144.267 119.541 144.323 119.94 144.292 120.36C144.261 120.779 144.138 121.181 143.921 121.564C143.783 121.807 143.613 122.031 143.413 122.233L142.348 120.915C142.509 120.782 142.638 120.631 142.734 120.461C142.897 120.174 142.974 119.87 142.966 119.549C142.962 119.23 142.881 118.932 142.723 118.653C142.565 118.373 142.34 118.151 142.048 117.986L138.287 115.857L139.056 114.499Z" fill="black"/>
<path d="M135.906 129.604L136.902 128.383L132.304 124.619L133.291 123.41L137.889 127.174L138.644 126.25L139.853 127.238L139.098 128.162L140.928 129.646L139.941 130.855L138.111 129.371L137.114 130.591L135.906 129.604Z" fill="black"/>
<path d="M128.15 139.132L126.87 140.199L122.819 128.921L124.093 127.859L125.453 131.61L132.327 135.648L131.019 136.739L126.223 133.752L128.15 139.132Z" fill="black"/>
</svg>
