<svg width="128" height="133" viewBox="0 0 128 133" fill="none" xmlns="http://www.w3.org/2000/svg">
<g clip-path="url(#clip0_75_4325)">
<path d="M75.27 115.91C75.27 104.54 75.25 93.17 75.24 81.79C75.24 79.92 75.23 78.06 75.24 76.19C75.25 72.58 78.3801 69.63 82.0701 70.64C84.4301 71.29 85.9801 73.43 86.0401 75.84C86.0501 76.31 86.0401 76.78 86.0401 77.25V85.89C86.0401 92.03 86.05 98.17 86.06 104.31C86.06 106.24 89.06 106.24 89.06 104.31C89.06 98.7 89.0601 93.08 89.0501 87.47V77.75C89.0501 74.69 88.7201 71.76 86.2301 69.58C82.0201 65.89 75.2101 67.31 72.9601 72.49C72.1101 74.43 72.2501 76.47 72.2501 78.53C72.2501 85.35 72.26 92.17 72.27 98.99C72.27 104.63 72.27 110.27 72.28 115.91C72.28 117.84 75.28 117.84 75.28 115.91H75.27Z" fill="#231F20"/>
<path d="M66.58 128.04C64.05 124.6 61.53 121.16 59 117.71C57.74 115.99 56.47 114.27 55.21 112.55C54.23 111.22 53.13 109.95 52.94 108.24C52.61 105.32 54.79 102.59 57.71 102.26C59.69 102.04 61.56 102.99 62.71 104.47C66.88 109.89 70.82 115.52 74.87 121.03C76.39 123.1 77.91 125.18 79.43 127.25C80.56 128.79 83.17 127.3 82.02 125.74C77.91 120.13 73.79 114.53 69.68 108.92C68.18 106.88 66.71 104.82 65.19 102.8C63.25 100.23 60.21 98.85 56.99 99.35C53.77 99.85 51 102.35 50.19 105.54C49.03 110.13 52.16 113.41 54.67 116.84C57.78 121.08 60.89 125.31 64 129.55C65.13 131.09 67.74 129.6 66.59 128.04H66.58Z" fill="#231F20"/>
<path d="M88.99 105C88.99 103.32 88.99 101.63 88.99 99.95C88.99 98 88.77 96.13 90.04 94.55C91.68 92.53 94.87 92.14 96.88 93.86C97.91 94.74 98.56 95.98 98.62 97.28C98.65 97.9 98.62 98.52 98.62 99.14C98.62 101.09 98.62 103.04 98.62 104.99C98.62 106.94 101.62 106.92 101.62 104.99C101.62 103.06 101.62 101.25 101.62 99.38C101.62 98.65 101.65 97.92 101.61 97.19C101.49 95.29 100.73 93.48 99.39 92.11C96.79 89.44 92.37 88.96 89.32 91.17C87.8 92.27 86.66 93.84 86.21 95.68C85.98 96.63 85.98 97.59 85.98 98.56C85.98 100.7 85.98 102.85 85.98 104.99C85.98 106.92 88.98 106.92 88.98 104.99L88.99 105Z" fill="#231F20"/>
<path d="M101.65 107.86V102.81C101.65 100.86 101.43 98.9899 102.7 97.4099C104.34 95.3899 107.53 94.9999 109.54 96.7199C110.57 97.5999 111.22 98.8399 111.28 100.14C111.31 100.76 111.28 101.38 111.28 102C111.28 103.95 111.28 105.9 111.28 107.85C111.28 109.8 114.28 109.78 114.28 107.85C114.28 105.92 114.28 104.11 114.28 102.24C114.28 101.51 114.31 100.78 114.27 100.05C114.15 98.1499 113.39 96.3399 112.05 94.9699C109.45 92.2999 105.03 91.8199 101.98 94.0299C100.46 95.1299 99.32 96.6999 98.87 98.5399C98.64 99.4899 98.64 100.45 98.64 101.42V107.85C98.64 109.78 101.65 109.78 101.64 107.85L101.65 107.86Z" fill="#231F20"/>
<path d="M114.38 109.7C114.38 108.02 114.38 106.33 114.38 104.65C114.38 102.7 114.16 100.83 115.43 99.25C117.07 97.23 120.26 96.84 122.27 98.56C123.3 99.44 123.95 100.68 124.01 101.98C124.04 102.6 124.01 103.22 124.01 103.84C124.01 105.79 124.01 107.74 124.01 109.69C124.01 111.64 127.01 111.62 127.01 109.69C127.01 107.76 127.01 105.95 127.01 104.08C127.01 103.35 127.04 102.62 127 101.89C126.88 99.99 126.12 98.18 124.78 96.81C122.18 94.14 117.76 93.66 114.71 95.87C113.19 96.97 112.05 98.54 111.6 100.38C111.37 101.33 111.37 102.29 111.37 103.26C111.37 105.4 111.37 107.55 111.37 109.69C111.37 111.62 114.37 111.62 114.37 109.69L114.38 109.7Z" fill="#231F20"/>
<path d="M24.36 91.86V13.61C24.36 8.86 27.1 4.58 31.86 3.35C34.16 2.75 36.85 3.04 39.21 3.04H79.77C80.44 3.04 81.11 3.04 81.77 3.04C84.96 3.08 88 4.55 89.88 7.16C91.63 9.59 91.78 12.25 91.78 15.07V89.86C91.78 91.79 94.78 91.79 94.78 89.86V17.66C94.78 16.12 94.8 14.58 94.78 13.05C94.69 5.9 88.93 0.13 81.78 0.04C74.63 -0.05 67.63 0.04 60.56 0.04H35.12C29.78 0.04 24.79 2.62 22.53 7.65C21.39 10.19 21.36 12.74 21.36 15.43V91.87C21.36 93.8 24.36 93.8 24.36 91.87V91.86Z" fill="#231F20"/>
<path d="M59.78 122.85H47.35C45.42 122.85 45.42 125.85 47.35 125.85H59.78C61.71 125.85 61.71 122.85 59.78 122.85Z" fill="#231F20"/>
<path d="M23.4 17.46H93.28C95.21 17.46 95.21 14.46 93.28 14.46H23.4C21.47 14.46 21.47 17.46 23.4 17.46Z" fill="#231F20"/>
<path d="M38.4 108.34H50.49C52.42 108.34 52.42 105.34 50.49 105.34H38.4C36.47 105.34 36.47 108.34 38.4 108.34Z" fill="#231F20"/>
<path d="M66.1299 108.34H72.1799C72.9599 108.34 73.7199 107.65 73.6799 106.84C73.6399 106.03 73.0199 105.34 72.1799 105.34H66.1299C65.3499 105.34 64.5899 106.03 64.6299 106.84C64.6699 107.65 65.2899 108.34 66.1299 108.34Z" fill="#231F20"/>
<path d="M69.53 10.4099C71.46 10.4099 71.46 7.40991 69.53 7.40991C67.6 7.40991 67.6 10.4099 69.53 10.4099Z" fill="#231F20"/>
<path d="M45.78 10.4099H61.92C63.85 10.4099 63.85 7.40991 61.92 7.40991H45.78C43.85 7.40991 43.85 10.4099 45.78 10.4099Z" fill="#231F20"/>
<path d="M15.19 129.84C13.21 124.49 11.22 119.14 9.23997 113.79C8.28997 111.22 7.23997 108.75 7.21997 105.95C7.19997 103.48 7.21997 101.02 7.21997 98.55V88.21C7.21997 84.58 7.17997 80.74 8.41997 77.29C8.94997 75.8 9.92997 74.36 10.65 72.96L15.4 63.76C18.07 58.58 20.74 53.41 23.41 48.23C24.29 46.52 21.71 45 20.82 46.72C15.87 56.32 10.73 65.84 5.95997 75.53C5.10997 77.26 4.82997 79.34 4.55997 81.24C4.30997 83.01 4.21997 84.78 4.21997 86.56V95.84C4.21997 98.95 4.21997 102.06 4.21997 105.17C4.21997 107.82 4.74997 110.28 5.66997 112.75C7.87997 118.71 10.09 124.68 12.31 130.64C12.98 132.43 15.88 131.66 15.2 129.84H15.19Z" fill="#231F20"/>
<path d="M47.48 130.99C48.21 127.17 47.11 122.85 45.86 119.28C45.16 117.28 44.31 115.32 43.35 113.44C42.24 111.26 40.8 109.24 39.99 106.92C39.14 104.47 39.13 102.11 39.11 99.5501C39.09 96.9901 39.07 94.3101 39.04 91.6901L38.6 92.7501C41.27 89.4801 43.7 85.9401 45.11 81.9301C46.02 79.3501 46.54 76.2501 45.27 73.6901C44 71.1301 40.84 69.8101 38.09 69.8801C36.47 69.9201 35.89 70.8901 35.09 72.1001C30.06 79.7401 25.56 87.7701 20.93 95.6501C19.45 98.1801 17.96 100.71 16.49 103.25C15.52 104.92 18.11 106.43 19.08 104.76C24.38 95.6401 29.7 86.5201 35.21 77.5301C36.23 75.8601 37.26 74.2001 38.37 72.5901C38.18 72.7101 38.6 72.2601 38.37 72.5901C37.79 72.9501 37.67 72.7901 38.09 72.8701C38.96 73.0401 39.77 73.0101 40.63 73.3601C42.14 73.9801 42.95 75.1701 43.02 76.7801C43.24 81.5001 39.87 86.3601 37.09 89.8701C36.61 90.4701 36.13 90.9001 36.04 91.6901C35.95 92.4801 36.05 93.3601 36.06 94.1501C36.07 95.7901 36.09 97.4201 36.1 99.0601C36.13 102.21 36.12 105.15 37.24 108.14C38.43 111.34 40.47 114.15 41.85 117.27C42.87 119.57 43.67 121.98 44.17 124.44C44.47 125.9 44.65 127.38 44.64 128.87C44.64 129.28 44.61 129.68 44.58 130.09C44.55 130.68 44.64 129.84 44.57 130.21C44.21 132.1 47.1 132.9 47.46 131.01L47.48 130.99Z" fill="#231F20"/>
<path d="M75.48 48.3599C75.41 55.7799 70.77 62.6699 63.71 65.1999C56.65 67.7299 48.52 65.5399 43.68 59.6999C38.84 53.8599 38.37 45.5099 42.2 39.1299C46.02 32.7799 53.65 29.3099 60.95 30.7599C69.34 32.4299 75.4 39.8299 75.48 48.3599C75.5 50.2899 78.5 50.2899 78.48 48.3599C78.4 39.5999 72.91 31.7099 64.67 28.6899C56.51 25.6899 46.96 28.3099 41.46 35.0299C35.91 41.7999 35.09 51.5699 39.62 59.1099C44.16 66.6699 53.12 70.5599 61.75 68.8599C71.43 66.9399 78.39 58.1399 78.48 48.3699C78.5 46.4399 75.5 46.4399 75.48 48.3699V48.3599Z" fill="#231F20"/>
<path d="M61.9 84.04H53.18C50.6119 84.04 48.53 86.1197 48.53 88.685C48.53 91.2504 50.6119 93.33 53.18 93.33H61.9C64.4682 93.33 66.55 91.2504 66.55 88.685C66.55 86.1197 64.4682 84.04 61.9 84.04Z" fill="#C1D9E5"/>
<path d="M9.18994 64.0999V27.1999C9.18994 25.2699 6.18994 25.2699 6.18994 27.1999V64.0899C6.18994 66.0199 9.18994 66.0199 9.18994 64.0899V64.0999Z" fill="#231F20"/>
<path d="M2.55999 33.6199C4.71999 31.4199 6.87999 29.2099 9.03999 27.0099H6.91999C9.07999 29.1399 11.24 31.2699 13.4 33.3899C14.78 34.7499 16.9 32.6299 15.52 31.2699C13.36 29.1399 11.2 27.0099 9.03999 24.8899C8.46999 24.3299 7.48999 24.3099 6.91999 24.8899C4.75999 27.0899 2.59999 29.2999 0.439989 31.4999C-0.910011 32.8799 1.20999 34.9999 2.55999 33.6199Z" fill="#231F20"/>
<path d="M108.33 50.21V13.31C108.33 11.38 105.33 11.38 105.33 13.31V50.2001C105.33 52.1301 108.33 52.1301 108.33 50.2001V50.21Z" fill="#231F20"/>
<path d="M101.69 19.73C103.85 17.53 106.01 15.32 108.17 13.12H106.05C108.21 15.25 110.37 17.38 112.53 19.5C113.91 20.86 116.03 18.74 114.65 17.38C112.49 15.25 110.33 13.12 108.17 11C107.6 10.44 106.62 10.42 106.05 11C103.89 13.2 101.73 15.41 99.57 17.61C98.22 18.99 100.34 21.11 101.69 19.73Z" fill="#231F20"/>
<path d="M61.1 39.4101C61.68 40.1901 62.06 41.0201 62.25 41.9201C62.3 42.1401 62.46 42.0601 62.57 42.0601C63.44 42.0601 64.32 42.0601 65.19 42.0601C65.84 42.0601 66.01 42.2401 66.01 42.8901C66.01 43.4101 66.01 43.9201 66.01 44.4401C66.01 44.9301 65.81 45.1201 65.31 45.1301C64.42 45.1301 63.54 45.1301 62.65 45.1301C62.41 45.1301 62.31 45.1801 62.26 45.4301C61.64 48.4201 59.73 50.1901 56.88 51.0701C56.23 51.2701 55.57 51.3701 54.87 51.5101C55.4 52.0901 55.92 52.6501 56.42 53.2201C58.17 55.2001 59.89 57.2001 61.54 59.2601C62.11 59.9701 62.69 60.6701 63.27 61.3601C63.44 61.5601 63.5 61.7601 63.38 62.0001C63.26 62.2401 63.07 62.3601 62.79 62.3501C61.63 62.3401 60.47 62.3401 59.32 62.3501C59 62.3501 58.82 62.1801 58.65 61.9701C57.97 61.1601 57.31 60.3401 56.62 59.5401C55.5 58.2201 54.36 56.9201 53.23 55.6001C52.08 54.2701 50.9 52.9701 49.71 51.6801C49.52 51.4801 49.43 51.2701 49.44 50.9901C49.46 50.3101 49.44 49.6401 49.44 48.9601C49.44 48.4501 49.65 48.2401 50.15 48.2301C51.26 48.2201 52.37 48.2901 53.47 48.1501C54.82 47.9801 56.11 47.6401 57.1 46.6001C57.43 46.2501 57.64 45.8201 57.83 45.3801C57.91 45.1901 57.87 45.1201 57.65 45.1201C56.97 45.1201 56.3 45.1201 55.62 45.1201C53.83 45.1201 52.05 45.1201 50.26 45.1201C49.6 45.1201 49.45 44.9701 49.45 44.2901C49.45 43.7701 49.45 43.2601 49.45 42.7401C49.45 42.2901 49.64 42.0901 50.08 42.0501C50.25 42.0401 50.42 42.0501 50.6 42.0501C52.8 42.0501 55.01 42.0501 57.21 42.0501C57.33 42.0501 57.5 42.1101 57.55 42.0001C57.61 41.8801 57.47 41.7601 57.39 41.6601C56.75 40.7801 55.84 40.3901 54.82 40.1801C53.31 39.8701 51.78 39.9801 50.26 39.9601C49.6 39.9601 49.44 39.8001 49.44 39.1301C49.44 38.4301 49.44 37.7301 49.44 37.0201C49.44 36.5301 49.64 36.3301 50.14 36.3301C55.19 36.3301 60.24 36.3301 65.29 36.3301C65.72 36.3301 65.94 36.5201 65.96 36.9401C65.98 37.5601 65.98 38.1701 65.96 38.7901C65.95 39.2301 65.72 39.4101 65.21 39.4101C63.95 39.4101 62.7 39.4101 61.44 39.4101C61.34 39.4101 61.23 39.4101 61.07 39.4101H61.1Z" fill="url(#paint0_linear_75_4325)"/>
</g>
<defs>
<linearGradient id="paint0_linear_75_4325" x1="49.46" y1="49.3601" x2="66.02" y2="49.3601" gradientUnits="userSpaceOnUse">
<stop stop-color="#8DCC9A"/>
<stop offset="1" stop-color="#5DC4C6"/>
</linearGradient>
<clipPath id="clip0_75_4325">
<rect width="127.03" height="132.07" fill="white"/>
</clipPath>
</defs>
</svg>
