<svg width="144" height="130" viewBox="0 0 144 130" fill="none" xmlns="http://www.w3.org/2000/svg">
<g clip-path="url(#clip0_75_2928)">
<path d="M116.35 45.1001L89.43 2.96005C87.52 -0.0299456 83.56 -0.899946 80.57 1.01005L11.21 45.3301H115.99L116.36 45.1001H116.35Z" fill="#C5D8E3"/>
<path d="M130.6 103.8V117.75C130.6 119.15 130.59 120.51 130.07 121.85C128.83 125.04 125.74 126.85 122.4 126.86C121.34 126.86 120.28 126.86 119.22 126.86H12.28C11.1 126.86 9.96 126.89 8.8 126.58C5.13 125.57 3.01 122.24 3 118.55C3 116.87 3 115.18 3 113.5V68.46C3 64.47 2.94 60.47 3 56.48C3.06 52.09 6.54 48.62 10.93 48.56C11.69 48.55 12.45 48.56 13.22 48.56H114.94C117.51 48.56 120.09 48.53 122.66 48.56C127.09 48.62 130.54 52.13 130.59 56.55C130.63 59.63 130.59 62.72 130.59 65.8V73.66C130.59 75.59 133.59 75.59 133.59 73.66C133.59 67.93 133.68 62.19 133.59 56.47C133.5 50.75 128.69 45.66 122.7 45.57C122.06 45.57 121.43 45.57 120.79 45.57H17.87C15.44 45.57 12.99 45.48 10.56 45.57C4.7 45.79 0.100003 50.62 0.0100028 56.45C2.78093e-06 57.6 0.0100028 58.74 0.0100028 59.89V104.9C0.0100028 109.52 -0.00999722 114.14 0.0100028 118.76C0.0300028 123.38 2.74 127.48 7.07 129.15C8.68 129.77 10.35 129.85 12.04 129.85H114.11C116.94 129.85 119.78 129.88 122.61 129.85C127.34 129.79 131.55 126.84 133.05 122.32C134.06 119.28 133.58 115.5 133.58 112.35V103.78C133.58 101.85 130.58 101.85 130.58 103.78L130.6 103.8Z" fill="#221F20"/>
<path d="M137 101.21C128.72 101.21 120.43 101.21 112.15 101.21C109.02 101.21 105.9 101.25 102.77 101.21C99.41 101.17 96.24 99.49 94.46 96.61C92.95 94.17 92.98 91.58 92.98 88.83C92.98 86.08 92.74 83.51 93.9 81.08C95.54 77.65 98.97 75.52 102.75 75.47C105.59 75.43 108.43 75.47 111.26 75.47C119.81 75.47 128.41 75.22 136.96 75.47C139.47 75.54 140.94 77.47 140.95 79.85C140.95 81.86 140.95 83.88 140.95 85.89V93.8C140.95 95.2 141.17 96.83 140.84 98.21C140.41 100 138.8 101.16 137 101.22C135.07 101.28 135.07 104.28 137 104.22C140.9 104.1 143.86 101.09 143.95 97.2C143.99 95.34 143.95 93.48 143.95 91.62V83.09C143.95 81.39 144.14 79.52 143.77 77.84C143.05 74.58 140.05 72.5 136.82 72.47C135.49 72.46 134.15 72.47 132.82 72.47C127.35 72.47 121.88 72.47 116.41 72.47H103.42C100.99 72.47 98.65 72.9 96.5 74.1C92.86 76.14 90.49 79.89 90.05 84.02C89.81 86.34 89.98 88.76 89.98 91.09C89.99 94.71 91.29 98.18 93.95 100.7C96.38 103 99.57 104.2 102.9 104.21C104.19 104.21 105.48 104.21 106.77 104.21H136.26C136.51 104.21 136.75 104.21 137 104.21C138.93 104.21 138.93 101.21 137 101.21Z" fill="#221F20"/>
<path d="M111.33 87.24C111.32 88.14 111.11 88.79 110.53 89.63C110.28 90 110.63 89.5201 110.46 89.7201C110.38 89.8101 110.3 89.9001 110.22 89.9801C110.15 90.0501 110.09 90.1101 110.02 90.18C110.01 90.1901 109.65 90.49 109.89 90.31C109.7 90.46 109.5 90.58 109.29 90.7C109.21 90.75 109.12 90.7901 109.04 90.8301C108.88 90.9001 108.87 90.91 109 90.85C108.93 90.88 108.87 90.9001 108.8 90.93C108.57 91.01 108.34 91.08 108.1 91.13C108.03 91.14 107.72 91.1901 107.99 91.1601C107.87 91.1801 107.74 91.1801 107.61 91.1901C107.36 91.2001 107.11 91.19 106.85 91.17C106.58 91.14 107.18 91.2501 106.73 91.1501C106.59 91.1201 106.44 91.0901 106.3 91.0501C106.16 91.0101 106.02 90.96 105.89 90.92C105.85 90.91 105.63 90.8001 105.85 90.9101C105.63 90.8101 105.42 90.7 105.22 90.57C104.82 90.32 104.66 90.1601 104.25 89.6901C104.4 89.8701 104.25 89.6901 104.22 89.6601C104.14 89.5401 104.06 89.4201 103.99 89.3001C103.94 89.2201 103.89 89.1401 103.85 89.0501C103.85 89.0301 103.64 88.61 103.76 88.89C103.67 88.67 103.6 88.43 103.54 88.2C103.52 88.1 103.5 88.0101 103.48 87.9101C103.45 87.7301 103.45 87.7201 103.47 87.8701C103.47 87.8001 103.45 87.7201 103.45 87.6501C103.43 87.4201 103.43 87.1901 103.45 86.9701C103.45 86.9501 103.51 86.47 103.46 86.77C103.48 86.67 103.49 86.5801 103.52 86.4801C103.57 86.2401 103.65 86.01 103.73 85.78C103.87 85.37 103.6 85.9901 103.81 85.6101C103.88 85.4901 103.94 85.3601 104.02 85.2301C104.08 85.1301 104.15 85.03 104.21 84.93C104.25 84.88 104.44 84.64 104.28 84.84C104.43 84.66 104.59 84.4901 104.77 84.3301C104.75 84.3501 105.1 84.05 104.94 84.17C104.78 84.29 105.15 84.02 105.13 84.03C105.37 83.87 105.62 83.7301 105.88 83.6101C105.82 83.6401 105.64 83.69 105.92 83.6C106.06 83.55 106.19 83.5101 106.33 83.4701C106.42 83.4401 106.52 83.4201 106.61 83.4001C106.58 83.4001 107.06 83.32 106.85 83.35C106.64 83.38 107.13 83.3301 107.1 83.3301C107.23 83.3301 107.35 83.3301 107.48 83.3301C107.61 83.3301 107.73 83.34 107.86 83.35C108.2 83.37 107.75 83.3 108.05 83.38C108.34 83.45 108.61 83.5201 108.89 83.6201C109.32 83.7701 108.76 83.55 109 83.67C109.15 83.74 109.3 83.8201 109.44 83.9101C109.52 83.9601 109.6 84.01 109.68 84.06C109.76 84.11 109.84 84.1701 109.91 84.2201C109.79 84.1301 109.8 84.14 109.94 84.25C110.11 84.42 110.28 84.58 110.44 84.75C110.74 85.06 110.31 84.54 110.56 84.89C110.64 85.01 110.72 85.12 110.79 85.25C110.86 85.38 110.93 85.5 111 85.63C111.15 85.89 110.97 85.4901 111.08 85.8001C111.18 86.0801 111.25 86.36 111.32 86.64C111.33 86.68 111.36 86.93 111.33 86.68C111.35 86.88 111.36 87.08 111.36 87.28C111.37 88.09 112.04 88.78 112.86 88.78C113.68 88.78 114.37 88.09 114.36 87.28C114.32 84.34 112.51 81.79 109.77 80.75C107.03 79.71 103.91 80.6101 102.13 82.7901C100.35 84.9701 99.92 88.2801 101.45 90.8301C102.98 93.3801 105.91 94.61 108.79 94.09C112.03 93.51 114.32 90.5001 114.37 87.2901C114.38 86.4801 113.67 85.7901 112.87 85.7901C112.07 85.7901 111.38 86.4801 111.37 87.2901L111.33 87.24Z" fill="#221F20"/>
<path d="M103.53 10.5001L12.11 45.2801H121.9L109.73 13.2901C108.79 10.8101 106.01 9.5601 103.53 10.5101V10.5001Z" fill="url(#paint0_linear_75_2928)"/>
</g>
<defs>
<linearGradient id="paint0_linear_75_2928" x1="16.3134" y1="64.5712" x2="114.965" y2="27.038" gradientUnits="userSpaceOnUse">
<stop stop-color="#9BCB9E"/>
<stop offset="1" stop-color="#78C1C4"/>
</linearGradient>
<clipPath id="clip0_75_2928">
<rect width="144" height="129.87" fill="white"/>
</clipPath>
</defs>
</svg>
